RobotoSerifText-SuperWdth530.ufo
<glyph name="G" format="2">
  <advance width="643"/>
  <unicode hex="0047"/>
  <anchor x="329.14" y="741.0" name="top"/>
  <anchor x="329.14" y="0.0" name="bottom"/>
  <outline>
    <contour>
      <point x="598.7" y="248.5" type="line" smooth="yes"/>
      <point x="598.7" y="277.5"/>
      <point x="607.314" y="284.5"/>
      <point x="618.976" y="284.5" type="curve" smooth="yes"/>
      <point x="625.542" y="284.5" type="line"/>
      <point x="625.542" y="361.6" type="line"/>
      <point x="343.62600000000003" y="361.6" type="line"/>
      <point x="343.62600000000003" y="284.5" type="line"/>
      <point x="350.81600000000003" y="284.5" type="line" smooth="yes"/>
      <point x="368.832" y="284.5"/>
      <point x="379.776" y="277.5"/>
      <point x="379.776" y="248.5" type="curve" smooth="yes"/>
      <point x="379.776" y="114.56" type="line"/>
      <point x="370.338" y="100.72"/>
      <point x="361.842" y="84.67999999999999"/>
      <point x="351.84" y="84.67999999999999" type="curve" smooth="yes"/>
      <point x="306.14599999999996" y="84.67999999999999"/>
      <point x="273.13800000000003" y="173.02"/>
      <point x="273.13800000000003" y="355.0" type="curve" smooth="yes"/>
      <point x="273.13800000000003" y="518.22"/>
      <point x="298.756" y="625.32"/>
      <point x="368.24399999999997" y="625.32" type="curve" smooth="yes"/>
      <point x="426.87" y="625.32"/>
      <point x="450.358" y="568.06"/>
      <point x="471.646" y="480.52" type="curve"/>
      <point x="575.848" y="480.52" type="line"/>
      <point x="575.848" y="710.0" type="line"/>
      <point x="488.65" y="710.0" type="line"/>
      <point x="470.128" y="534.08" type="line"/>
      <point x="529.648" y="521.18" type="line"/>
      <point x="500.782" y="635.08"/>
      <point x="461.714" y="720.0"/>
      <point x="331.176" y="720.0" type="curve" smooth="yes"/>
      <point x="153.12" y="720.0"/>
      <point x="20.064" y="569.0"/>
      <point x="20.064" y="355.0" type="curve" smooth="yes"/>
      <point x="20.064" y="134.42"/>
      <point x="146.73" y="-10.0"/>
      <point x="335.024" y="-10.0" type="curve" smooth="yes"/>
      <point x="460.15999999999997" y="-10.0"/>
      <point x="562.044" y="50.56"/>
      <point x="598.7" y="104.0" type="curve"/>
    </contour>
  </outline>
</glyph>
<glyph name="H" format="2">
  <advance width="686"/>
  <unicode hex="0048"/>
  <anchor x="349" y="741.0" name="top"/>
  <anchor x="349" y="0.0" name="bottom"/>
  <outline>
    <contour>
      <point x="137" y="410" type="line"/>
      <point x="137" y="322" type="line"/>
      <point x="498" y="322" type="line"/>
      <point x="498" y="410" type="line"/>
    </contour>
    <contour>
      <point x="15" y="0" type="line"/>
      <point x="334" y="0" type="line"/>
      <point x="334" y="77" type="line"/>
      <point x="327" y="77" type="line" smooth="yes"/>
      <point x="313" y="77"/>
      <point x="298" y="80"/>
      <point x="298" y="87" type="curve" smooth="yes"/>
      <point x="298" y="623" type="line"/>
      <point x="298" y="630"/>
      <point x="313" y="633"/>
      <point x="327" y="633" type="curve" smooth="yes"/>
      <point x="334" y="633" type="line"/>
      <point x="334" y="710" type="line"/>
      <point x="15" y="710" type="line"/>
      <point x="15" y="633" type="line"/>
      <point x="24" y="633" type="line" smooth="yes"/>
      <point x="41" y="633"/>
      <point x="53" y="626"/>
      <point x="53" y="597" type="curve" smooth="yes"/>
      <point x="53" y="113" type="line" smooth="yes"/>
      <point x="53" y="84"/>
      <point x="41" y="77"/>
      <point x="24" y="77" type="curve" smooth="yes"/>
      <point x="15" y="77" type="line"/>
    </contour>
    <contour>
      <point x="353" y="0" type="line"/>
      <point x="671" y="0" type="line"/>
      <point x="671" y="77" type="line"/>
      <point x="664" y="77" type="line" smooth="yes"/>
      <point x="646" y="77"/>
      <point x="635" y="84"/>
      <point x="635" y="113" type="curve" smooth="yes"/>
      <point x="635" y="597" type="line" smooth="yes"/>
      <point x="635" y="626"/>
      <point x="646" y="633"/>
      <point x="664" y="633" type="curve" smooth="yes"/>
      <point x="671" y="633" type="line"/>
      <point x="671" y="710" type="line"/>
      <point x="353" y="710" type="line"/>
      <point x="353" y="633" type="line"/>
      <point x="360" y="633" type="line" smooth="yes"/>
      <point x="373" y="633"/>
      <point x="389" y="630"/>
      <point x="389" y="623" type="curve"/>
      <point x="389" y="87" type="line" smooth="yes"/>
      <point x="389" y="80"/>
      <point x="373" y="77"/>
      <point x="360" y="77" type="curve" smooth="yes"/>
      <point x="353" y="77" type="line"/>
    </contour>
  </outline>
</glyph>
<glyph name="T" format="2">
  <advance width="648"/>
  <unicode hex="0054"/>
  <anchor x="283.07" y="741.0" name="top"/>
  <anchor x="283.07" y="0.0" name="bottom"/>
  <outline>
    <contour>
      <point x="201.626" y="113.1" type="line" smooth="yes"/>
      <point x="201.626" y="84.1"/>
      <point x="190.58800000000002" y="77.1"/>
      <point x="173.86599999999999" y="77.1" type="curve" smooth="yes"/>
      <point x="161.958" y="77.1" type="line"/>
      <point x="161.958" y="0.0" type="line"/>
      <point x="485.81399999999996" y="0.0" type="line"/>
      <point x="485.81399999999996" y="77.1" type="line"/>
      <point x="474.47" y="77.1" type="line" smooth="yes"/>
      <point x="457.748" y="77.1"/>
      <point x="446.71000000000004" y="84.1"/>
      <point x="446.71000000000004" y="113.1" type="curve" smooth="yes"/>
      <point x="446.71000000000004" y="622.18" type="line"/>
      <point x="446.192" y="622.18" type="line" smooth="yes"/>
      <point x="498.676" y="622.18"/>
      <point x="521.764" y="615.18"/>
      <point x="523.094" y="579.18" type="curve" smooth="yes"/>
      <point x="530.142" y="465.7" type="line"/>
      <point x="631.932" y="465.7" type="line"/>
      <point x="631.932" y="710.0" type="line"/>
      <point x="16.404000000000003" y="710.0" type="line"/>
      <point x="16.404000000000003" y="465.7" type="line"/>
      <point x="118.288" y="465.7" type="line"/>
      <point x="124.67800000000001" y="579.18" type="line" smooth="yes"/>
      <point x="126.57200000000002" y="615.18"/>
      <point x="149.096" y="622.18"/>
      <point x="202.238" y="622.18" type="curve" smooth="yes"/>
      <point x="201.626" y="622.18" type="line"/>
    </contour>
  </outline>
</glyph>
<glyph name="X" format="2">
  <advance width="612"/>
  <unicode hex="0058"/>
  <outline>
    <contour>
      <point x="6" y="633" type="line"/>
      <point x="9" y="633" type="line" smooth="yes"/>
      <point x="26" y="633"/>
      <point x="30" y="629"/>
      <point x="44" y="601" type="curve" smooth="yes"/>
      <point x="181" y="330" type="line"/>
      <point x="186" y="326" type="line"/>
      <point x="302" y="87" type="line"/>
      <point x="302" y="80"/>
      <point x="287" y="77"/>
      <point x="275" y="77" type="curve" smooth="yes"/>
      <point x="264" y="77" type="line"/>
      <point x="264" y="0" type="line"/>
      <point x="609" y="0" type="line"/>
      <point x="609" y="77" type="line"/>
      <point x="601" y="77" type="line" smooth="yes"/>
      <point x="584" y="77"/>
      <point x="581" y="83"/>
      <point x="566" y="111" type="curve" smooth="yes"/>
      <point x="402" y="411" type="line"/>
      <point x="399" y="414" type="line"/>
      <point x="308" y="623" type="line"/>
      <point x="308" y="630"/>
      <point x="322" y="633"/>
      <point x="335" y="633" type="curve" smooth="yes"/>
      <point x="346" y="633" type="line"/>
      <point x="346" y="710" type="line"/>
      <point x="6" y="710" type="line"/>
    </contour>
    <contour>
      <point x="3" y="0" type="line"/>
      <point x="164" y="0" type="line"/>
      <point x="164" y="77" type="line"/>
      <point x="155" y="77" type="line" smooth="yes"/>
      <point x="142" y="77"/>
      <point x="126" y="84"/>
      <point x="126" y="95" type="curve"/>
      <point x="264" y="352" type="line"/>
      <point x="198" y="395" type="line"/>
      <point x="51" y="123" type="line" smooth="yes"/>
      <point x="33" y="90"/>
      <point x="28" y="77"/>
      <point x="11" y="77" type="curve" smooth="yes"/>
      <point x="3" y="77" type="line"/>
    </contour>
    <contour>
      <point x="419" y="327" type="line"/>
      <point x="539" y="588" type="line" smooth="yes"/>
      <point x="555" y="622"/>
      <point x="564" y="633"/>
      <point x="581" y="633" type="curve" smooth="yes"/>
      <point x="585" y="633" type="line"/>
      <point x="585" y="710" type="line"/>
      <point x="427" y="710" type="line"/>
      <point x="427" y="633" type="line"/>
      <point x="437" y="633" type="line" smooth="yes"/>
      <point x="449" y="633"/>
      <point x="463" y="626"/>
      <point x="463" y="615" type="curve"/>
      <point x="369" y="405" type="line"/>
    </contour>
  </outline>
</glyph>
<glyph name="b" format="2">
  <advance width="581"/>
  <unicode hex="0062"/>
  <outline>
    <contour>
      <point x="370" y="-10" type="curve" smooth="yes"/>
      <point x="486" y="-10"/>
      <point x="566" y="103"/>
      <point x="566" y="263" type="curve" smooth="yes"/>
      <point x="566" y="419"/>
      <point x="493" y="523"/>
      <point x="378" y="523" type="curve" smooth="yes"/>
      <point x="291" y="523"/>
      <point x="253" y="472"/>
      <point x="213" y="373" type="curve"/>
      <point x="213" y="260" type="line"/>
      <point x="253" y="370"/>
      <point x="265" y="416"/>
      <point x="293" y="416" type="curve" smooth="yes"/>
      <point x="321" y="416"/>
      <point x="331" y="363"/>
      <point x="331" y="263" type="curve" smooth="yes"/>
      <point x="331" y="161"/>
      <point x="320" y="97"/>
      <point x="285" y="97" type="curve" smooth="yes"/>
      <point x="257" y="97"/>
      <point x="245" y="139"/>
      <point x="220" y="231" type="curve"/>
      <point x="203" y="119" type="line"/>
      <point x="227" y="40"/>
      <point x="270" y="-10"/>
    </contour>
    <contour>
      <point x="30" y="629" type="curve" smooth="yes"/>
      <point x="30" y="0" type="line"/>
      <point x="163" y="0" type="line"/>
      <point x="234" y="105" type="line"/>
      <point x="261" y="91" type="line"/>
      <point x="261" y="735" type="line"/>
      <point x="10" y="735" type="line"/>
      <point x="10" y="660" type="line"/>
      <point x="16" y="658" type="line" smooth="yes"/>
      <point x="27" y="651"/>
      <point x="30" y="647"/>
    </contour>
  </outline>
</glyph>
<glyph name="c" format="2">
  <advance width="495"/>
  <unicode hex="0063"/>
  <anchor x="249.65" y="551.0" name="top"/>
  <anchor x="258.24" y="0.0" name="bottom"/>
  <outline>
    <contour>
      <point x="323.962" y="82.25999999999999" type="curve" smooth="yes"/>
      <point x="277.362" y="82.25999999999999"/>
      <point x="250.06199999999998" y="145.62"/>
      <point x="250.06199999999998" y="256.58" type="curve" smooth="yes"/>
      <point x="250.06199999999998" y="367.98"/>
      <point x="268.996" y="433.48"/>
      <point x="298.55600000000004" y="433.48" type="curve" smooth="yes"/>
      <point x="309.206" y="433.48"/>
      <point x="308.982" y="420.98"/>
      <point x="315.972" y="401.78" type="curve"/>
      <point x="341.084" y="411.7"/>
      <point x="347.76800000000003" y="456.64"/>
      <point x="310.688" y="459.06" type="curve"/>
      <point x="310.688" y="325.42" type="line"/>
      <point x="470.39799999999997" y="325.42" type="line"/>
      <point x="470.39799999999997" y="465.76" type="line"/>
      <point x="452.3" y="484.74"/>
      <point x="394.25" y="523.16"/>
      <point x="283.376" y="523.16" type="curve" smooth="yes"/>
      <point x="119.206" y="523.16"/>
      <point x="15.391999999999998" y="423.9"/>
      <point x="15.391999999999998" y="256.58" type="curve" smooth="yes"/>
      <point x="15.391999999999998" y="87.96"/>
      <point x="129.232" y="-10.0"/>
      <point x="277.09200000000004" y="-10.0" type="curve" smooth="yes"/>
      <point x="389.37800000000004" y="-10.0"/>
      <point x="445.18" y="51.02"/>
      <point x="480.824" y="137.8" type="curve"/>
      <point x="413.514" y="184.95999999999998" type="line"/>
      <point x="396.356" y="139.68"/>
      <point x="366.832" y="82.25999999999999"/>
    </contour>
  </outline>
</glyph>
<glyph name="s" format="2">
  <advance width="468"/>
  <unicode hex="0073"/>
  <anchor x="205" y="546.0" name="top"/>
  <anchor x="208" y="0.0" name="bottom"/>
  <outline>
    <contour>
      <point x="255" y="122" type="curve" smooth="yes"/>
      <point x="255" y="88"/>
      <point x="239" y="74"/>
      <point x="212" y="74" type="curve" smooth="yes"/>
      <point x="176" y="74"/>
      <point x="153" y="83"/>
      <point x="134" y="110" type="curve"/>
      <point x="100" y="117"/>
      <point x="104" y="66"/>
      <point x="153" y="46" type="curve"/>
      <point x="153" y="156" type="line"/>
      <point x="13" y="156" type="line"/>
      <point x="13" y="42" type="line"/>
      <point x="33" y="23"/>
      <point x="108" y="-10"/>
      <point x="210" y="-10" type="curve" smooth="yes"/>
      <point x="375" y="-10"/>
      <point x="459" y="52"/>
      <point x="459" y="173" type="curve" smooth="yes"/>
      <point x="459" y="284"/>
      <point x="371" y="317"/>
      <point x="298" y="340" type="curve" smooth="yes"/>
      <point x="249" y="357"/>
      <point x="207" y="367"/>
      <point x="207" y="404" type="curve" smooth="yes"/>
      <point x="207" y="430"/>
      <point x="222" y="444"/>
      <point x="243" y="444" type="curve" smooth="yes"/>
      <point x="271" y="444"/>
      <point x="287" y="433"/>
      <point x="305" y="413" type="curve"/>
      <point x="318" y="427"/>
      <point x="336" y="463"/>
      <point x="288" y="458" type="curve"/>
      <point x="288" y="376" type="line"/>
      <point x="427" y="376" type="line"/>
      <point x="427" y="478" type="line"/>
      <point x="412" y="493"/>
      <point x="352" y="527"/>
      <point x="243" y="527" type="curve" smooth="yes"/>
      <point x="114" y="527"/>
      <point x="20" y="470"/>
      <point x="20" y="355" type="curve" smooth="yes"/>
      <point x="20" y="234"/>
      <point x="103" y="204"/>
      <point x="169" y="184" type="curve" smooth="yes"/>
      <point x="216" y="168"/>
      <point x="255" y="159"/>
    </contour>
  </outline>
</glyph>
<glyph name="registered" format="2">
  <advance width="720.472"/>
  <unicode hex="00AE"/>
  <outline>
    <contour>
      <point x="113.652" y="355.0" type="curve" smooth="yes"/>
      <point x="113.652" y="530.68"/>
      <point x="211.276" y="667.36"/>
      <point x="360.01800000000003" y="667.36" type="curve" smooth="yes"/>
      <point x="508.196" y="667.36"/>
      <point x="606.82" y="530.68"/>
      <point x="606.82" y="355.0" type="curve" smooth="yes"/>
      <point x="606.82" y="179.32"/>
      <point x="508.196" y="42.63999999999999"/>
      <point x="360.01800000000003" y="42.63999999999999" type="curve" smooth="yes"/>
      <point x="211.276" y="42.63999999999999"/>
      <point x="113.652" y="179.32"/>
    </contour>
    <contour>
      <point x="23.676000000000002" y="355.0" type="curve" smooth="yes"/>
      <point x="23.676000000000002" y="132.84"/>
      <point x="164.452" y="-38.32"/>
      <point x="360.01800000000003" y="-38.32" type="curve" smooth="yes"/>
      <point x="556.678" y="-38.32"/>
      <point x="697.36" y="132.84"/>
      <point x="697.36" y="355.0" type="curve" smooth="yes"/>
      <point x="697.36" y="577.16"/>
      <point x="556.678" y="748.32"/>
      <point x="360.01800000000003" y="748.32" type="curve" smooth="yes"/>
      <point x="164.452" y="748.32"/>
      <point x="23.676000000000002" y="577.16"/>
    </contour>
    <contour>
      <point x="191.73000000000002" y="152.14" type="line"/>
      <point x="360.642" y="152.14" type="line"/>
      <point x="360.642" y="213.06" type="line"/>
      <point x="354.64" y="213.06" type="line" smooth="yes"/>
      <point x="348.67400000000004" y="213.06"/>
      <point x="346.85" y="214.92000000000002"/>
      <point x="346.85" y="218.92000000000002" type="curve" smooth="yes"/>
      <point x="346.85" y="307.56" type="line"/>
      <point x="375.398" y="307.56" type="line" smooth="yes"/>
      <point x="478.41200000000003" y="307.56"/>
      <point x="525.718" y="357.42"/>
      <point x="525.718" y="436.28" type="curve" smooth="yes"/>
      <point x="525.718" y="512.14"/>
      <point x="483.672" y="557.0"/>
      <point x="377.928" y="557.0" type="curve" smooth="yes"/>
      <point x="191.73000000000002" y="557.0" type="line"/>
      <point x="191.73000000000002" y="495.22" type="line"/>
      <point x="194.954" y="495.22" type="line" smooth="yes"/>
      <point x="205.474" y="495.22"/>
      <point x="215.912" y="491.22"/>
      <point x="215.912" y="475.22" type="curve" smooth="yes"/>
      <point x="215.912" y="233.06" type="line" smooth="yes"/>
      <point x="215.912" y="217.06"/>
      <point x="205.474" y="213.06"/>
      <point x="194.954" y="213.06" type="curve" smooth="yes"/>
      <point x="191.73000000000002" y="213.06" type="line"/>
    </contour>
    <contour>
      <point x="352.546" y="488.78" type="line" smooth="yes"/>
      <point x="379.45799999999997" y="488.78"/>
      <point x="395.286" y="471.22"/>
      <point x="395.286" y="427.68" type="curve" smooth="yes"/>
      <point x="395.286" y="382.14"/>
      <point x="379.45799999999997" y="358.58"/>
      <point x="350.016" y="358.58" type="curve" smooth="yes"/>
      <point x="346.85" y="358.58" type="line"/>
      <point x="346.85" y="488.78" type="line"/>
    </contour>
    <contour>
      <point x="344.838" y="335.0" type="line"/>
      <point x="398.72200000000004" y="152.0" type="line"/>
      <point x="532.002" y="152.0" type="line"/>
      <point x="532.002" y="212.92000000000002" type="line"/>
      <point x="529.566" y="212.92000000000002" type="line" smooth="yes"/>
      <point x="520.658" y="212.92000000000002"/>
      <point x="516.28" y="215.92000000000002"/>
      <point x="511.326" y="228.92000000000002" type="curve" smooth="yes"/>
      <point x="454.5" y="377.54" type="line"/>
    </contour>
  </outline>
</glyph>
<glyph name="acute" format="2">
  <advance width="417.75"/>
  <unicode hex="00B4"/>
  <anchor x="181.28" y="527.0" name="_top"/>
  <outline>
    <contour>
      <point x="169.03" y="682.06" type="curve" smooth="yes"/>
      <point x="152.802" y="585.14" type="line"/>
      <point x="152.802" y="554.82" type="line"/>
      <point x="218.84199999999998" y="554.82" type="line"/>
      <point x="277.16200000000003" y="604.24" type="line" smooth="yes"/>
      <point x="328.846" y="634.56"/>
      <point x="352.51" y="669.32"/>
      <point x="352.51" y="710.54" type="curve" smooth="yes"/>
      <point x="352.51" y="749.74"/>
      <point x="320.75" y="780.5"/>
      <point x="272.02" y="780.5" type="curve" smooth="yes"/>
      <point x="214.18200000000002" y="780.5"/>
      <point x="183.822" y="743.72"/>
    </contour>
  </outline>
</glyph>
<glyph name="AE" format="2">
  <advance width="803.692"/>
  <unicode hex="00C6"/>
  <anchor x="518.634" y="741.0" name="top"/>
  <outline>
    <contour>
      <point x="3.2479999999999993" y="0.0" type="line"/>
      <point x="177.12599999999998" y="0.0" type="line"/>
      <point x="177.12599999999998" y="77.1" type="line"/>
      <point x="168.618" y="77.1" type="line" smooth="yes"/>
      <point x="150.708" y="77.1"/>
      <point x="139.55200000000002" y="84.1"/>
      <point x="139.55200000000002" y="95.1" type="curve"/>
      <point x="186.222" y="223.64" type="line"/>
      <point x="345.744" y="223.64" type="line"/>
      <point x="345.744" y="109.46" type="line" smooth="yes"/>
      <point x="345.744" y="83.53999999999999"/>
      <point x="335.73" y="77.1"/>
      <point x="317.18399999999997" y="77.1" type="curve" smooth="yes"/>
      <point x="308.394" y="77.1" type="line"/>
      <point x="308.394" y="0.0" type="line"/>
      <point x="790.5360000000001" y="0.0" type="line"/>
      <point x="790.5360000000001" y="232.48000000000002" type="line"/>
      <point x="707.704" y="232.48000000000002" type="line"/>
      <point x="698.278" y="130.38" type="line" smooth="yes"/>
      <point x="694.548" y="94.38"/>
      <point x="672.024" y="87.38"/>
      <point x="609.868" y="87.38" type="curve" smooth="yes"/>
      <point x="591.122" y="87.38" type="line"/>
      <point x="591.122" y="323.96" type="line"/>
      <point x="717.918" y="312.65999999999997" type="line"/>
      <point x="717.918" y="414.2" type="line"/>
      <point x="591.122" y="402.9" type="line"/>
      <point x="591.122" y="622.62" type="line"/>
      <point x="616.47" y="622.62" type="line" smooth="yes"/>
      <point x="652.596" y="622.62"/>
      <point x="682.592" y="615.62"/>
      <point x="684.2860000000001" y="579.62" type="curve" smooth="yes"/>
      <point x="687.6400000000001" y="502.52" type="line"/>
      <point x="768.272" y="502.52" type="line"/>
      <point x="768.272" y="710.0" type="line"/>
      <point x="163.17" y="710.0" type="line"/>
      <point x="163.17" y="632.9" type="line"/>
      <point x="181.39800000000002" y="632.9" type="line" smooth="yes"/>
      <point x="234.552" y="632.9"/>
      <point x="254.31" y="622.46"/>
      <point x="255.51" y="601.18" type="curve"/>
      <point x="52.048" y="120.1" type="line" smooth="yes"/>
      <point x="37.28" y="87.68"/>
      <point x="23.488000000000003" y="77.1"/>
      <point x="7.214" y="77.1" type="curve" smooth="yes"/>
      <point x="3.2479999999999993" y="77.1" type="line"/>
    </contour>
    <contour>
      <point x="229.268" y="309.18" type="line"/>
      <point x="345.744" y="603.26" type="line"/>
      <point x="345.744" y="309.18" type="line"/>
    </contour>
  </outline>
</glyph>
<glyph name="multiply" format="2">
  <advance width="467.88"/>
  <unicode hex="00D7"/>
  <outline>
    <contour>
      <point x="120.818" y="558.94" type="line"/>
      <point x="37.56200000000001" y="474.1" type="line"/>
      <point x="336.918" y="121.2" type="line"/>
      <point x="420.468" y="206.04" type="line"/>
    </contour>
    <contour>
      <point x="337.118" y="558.94" type="line"/>
      <point x="37.668000000000006" y="206.04" type="line"/>
      <point x="121.018" y="121.2" type="line"/>
      <point x="420.574" y="474.1" type="line"/>
    </contour>
  </outline>
</glyph>
<glyph name="Thorn" format="2">
  <advance width="616.952"/>
  <unicode hex="00DE"/>
  <outline>
    <contour>
      <point x="343.332" y="710.0" type="line"/>
      <point x="14.392" y="710.0" type="line"/>
      <point x="14.392" y="632.9" type="line"/>
      <point x="22.876" y="632.9" type="line" smooth="yes"/>
      <point x="39.598000000000006" y="632.9"/>
      <point x="51.74199999999999" y="625.9"/>
      <point x="51.74199999999999" y="596.9" type="curve" smooth="yes"/>
      <point x="51.74199999999999" y="113.1" type="line" smooth="yes"/>
      <point x="51.74199999999999" y="84.1"/>
      <point x="39.598000000000006" y="77.1"/>
      <point x="22.876" y="77.1" type="curve" smooth="yes"/>
      <point x="14.392" y="77.1" type="line"/>
      <point x="14.392" y="0.0" type="line"/>
      <point x="343.332" y="0.0" type="line"/>
      <point x="343.332" y="77.1" type="line"/>
      <point x="324.162" y="77.1" type="line" smooth="yes"/>
      <point x="311.618" y="77.1"/>
      <point x="296.91999999999996" y="80.1"/>
      <point x="296.91999999999996" y="87.1" type="curve" smooth="yes"/>
      <point x="296.91999999999996" y="622.9" type="line"/>
      <point x="296.91999999999996" y="629.9"/>
      <point x="311.618" y="632.9"/>
      <point x="324.162" y="632.9" type="curve" smooth="yes"/>
      <point x="343.332" y="632.9" type="line"/>
    </contour>
    <contour>
      <point x="206.686" y="148.84" type="line"/>
      <point x="370.35" y="148.84" type="line" smooth="yes"/>
      <point x="523.082" y="148.84"/>
      <point x="618.0820000000001" y="230.54"/>
      <point x="618.0820000000001" y="367.3" type="curve" smooth="yes"/>
      <point x="618.0820000000001" y="498.9"/>
      <point x="529.648" y="571.88"/>
      <point x="374.40999999999997" y="571.88" type="curve" smooth="yes"/>
      <point x="203.95600000000002" y="571.88" type="line"/>
      <point x="206.686" y="483.64" type="line"/>
      <point x="305.452" y="483.64" type="line" smooth="yes"/>
      <point x="345.356" y="483.64"/>
      <point x="378.35200000000003" y="447.7"/>
      <point x="378.35200000000003" y="363.0" type="curve" smooth="yes"/>
      <point x="378.35200000000003" y="278.16"/>
      <point x="345.556" y="237.07999999999998"/>
      <point x="303.228" y="237.07999999999998" type="curve" smooth="yes"/>
      <point x="206.686" y="237.07999999999998" type="line"/>
    </contour>
  </outline>
</glyph>
<glyph name="divide" format="2">
  <advance width="467.88"/>
  <unicode hex="00F7"/>
  <outline>
    <contour>
      <point x="332.776" y="129.42000000000002" type="curve" smooth="yes"/>
      <point x="332.776" y="182.62"/>
      <point x="297.226" y="220.38"/>
      <point x="233.94" y="220.38" type="curve" smooth="yes"/>
      <point x="170.854" y="220.38"/>
      <point x="135.104" y="182.62"/>
      <point x="135.104" y="129.42000000000002" type="curve" smooth="yes"/>
      <point x="135.104" y="74.64"/>
      <point x="170.854" y="37.74000000000001"/>
      <point x="233.94" y="37.74000000000001" type="curve" smooth="yes"/>
      <point x="297.226" y="37.74000000000001"/>
      <point x="332.776" y="74.64"/>
    </contour>
    <contour>
      <point x="332.776" y="552.44" type="curve" smooth="yes"/>
      <point x="332.776" y="606.5"/>
      <point x="297.226" y="644.26"/>
      <point x="233.94" y="644.26" type="curve" smooth="yes"/>
      <point x="170.854" y="644.26"/>
      <point x="135.104" y="606.5"/>
      <point x="135.104" y="552.44" type="curve" smooth="yes"/>
      <point x="135.104" y="498.66"/>
      <point x="170.854" y="461.62"/>
      <point x="233.94" y="461.62" type="curve" smooth="yes"/>
      <point x="297.226" y="461.62"/>
      <point x="332.776" y="498.66"/>
    </contour>
    <component base="minus" xOffset="-32.523999999999994"/>
  </outline>
</glyph>
<glyph name="Eng" format="2">
  <advance width="618.552"/>
  <unicode hex="014A"/>
  <outline>
    <contour>
      <point x="471.834" y="93.36" type="line"/>
      <point x="471.834" y="-5.84" type="line" smooth="yes"/>
      <point x="471.834" y="-85.64"/>
      <point x="444.91" y="-112.74"/>
      <point x="409.136" y="-112.74" type="curve" smooth="yes"/>
      <point x="370.868" y="-112.74"/>
      <point x="339.778" y="-98.0"/>
      <point x="326.48" y="-91.14" type="curve"/>
      <point x="326.48" y="-193.98" type="line"/>
      <point x="354.134" y="-206.86"/>
      <point x="385.54200000000003" y="-212.0"/>
      <point x="416.538" y="-212.0" type="curve" smooth="yes"/>
      <point x="517.998" y="-212.0"/>
      <point x="565.598" y="-139.36"/>
      <point x="565.598" y="-4.120000000000001" type="curve" smooth="yes"/>
      <point x="565.598" y="596.2" type="line"/>
      <point x="565.598" y="625.2"/>
      <point x="577.272" y="632.9"/>
      <point x="594.558" y="632.9" type="curve" smooth="yes"/>
      <point x="602.278" y="632.9" type="line"/>
      <point x="602.278" y="710.0" type="line"/>
      <point x="431.236" y="710.0" type="line"/>
      <point x="431.236" y="632.9" type="line"/>
      <point x="440.956" y="632.9" type="line" smooth="yes"/>
      <point x="459.348" y="632.9"/>
      <point x="476.706" y="624.9"/>
      <point x="476.706" y="617.9" type="curve" smooth="yes"/>
      <point x="476.706" y="150.2" type="line"/>
      <point x="526.424" y="293.05999999999995" type="line"/>
      <point x="359.312" y="710.0" type="line"/>
      <point x="14.392" y="710.0" type="line"/>
      <point x="14.392" y="632.9" type="line"/>
      <point x="22.876" y="632.9" type="line" smooth="yes"/>
      <point x="39.598000000000006" y="632.9"/>
      <point x="51.74199999999999" y="625.9"/>
      <point x="51.74199999999999" y="596.9" type="curve" smooth="yes"/>
      <point x="51.74199999999999" y="118.1" type="line" smooth="yes"/>
      <point x="51.74199999999999" y="89.1"/>
      <point x="39.598000000000006" y="77.1"/>
      <point x="22.876" y="77.1" type="curve" smooth="yes"/>
      <point x="14.392" y="77.1" type="line"/>
      <point x="14.392" y="0.0" type="line"/>
      <point x="185.434" y="0.0" type="line"/>
      <point x="185.434" y="77.1" type="line"/>
      <point x="175.62" y="77.1" type="line" smooth="yes"/>
      <point x="156.686" y="77.1"/>
      <point x="139.964" y="85.1"/>
      <point x="139.964" y="92.1" type="curve" smooth="yes"/>
      <point x="139.964" y="674.0" type="line"/>
      <point x="110.098" y="670.0" type="line"/>
      <point x="491.074" y="-115.82000000000001" type="line"/>
    </contour>
  </outline>
</glyph>
<glyph name="eng" format="2">
  <advance width="552.042"/>
  <unicode hex="014B"/>
  <outline>
    <contour>
      <point x="9.437999999999999" y="0.0" type="line"/>
      <point x="277.904" y="0.0" type="line"/>
      <point x="277.904" y="71.66" type="line"/>
      <point x="275.374" y="71.66" type="line" smooth="yes"/>
      <point x="270.28999999999996" y="71.66"/>
      <point x="260.664" y="73.80000000000001"/>
      <point x="260.664" y="79.94" type="curve" smooth="yes"/>
      <point x="260.664" y="404.76" type="line"/>
      <point x="248.202" y="403.72" type="line"/>
      <point x="248.202" y="513.16" type="line"/>
      <point x="9.437999999999999" y="513.16" type="line"/>
      <point x="9.437999999999999" y="437.92" type="line"/>
      <point x="15.085999999999999" y="435.92" type="line" smooth="yes"/>
      <point x="26.736000000000004" y="429.36"/>
      <point x="29.49000000000001" y="425.08"/>
      <point x="29.49000000000001" y="407.26" type="curve" smooth="yes"/>
      <point x="29.49000000000001" y="99.06" type="line"/>
      <point x="29.49000000000001" y="77.80000000000001"/>
      <point x="20.546" y="71.66"/>
      <point x="10.332" y="71.66" type="curve" smooth="yes"/>
      <point x="9.437999999999999" y="71.66" type="line"/>
    </contour>
    <contour>
      <point x="553.572" y="344.96" type="line" smooth="yes"/>
      <point x="553.572" y="461.12"/>
      <point x="494.404" y="523.16"/>
      <point x="402.77" y="523.16" type="curve" smooth="yes"/>
      <point x="329.964" y="523.16"/>
      <point x="271.62" y="475.62"/>
      <point x="250.43799999999996" y="396.46" type="curve"/>
      <point x="261.288" y="325.02" type="line"/>
      <point x="270.102" y="375.32"/>
      <point x="283.164" y="406.84000000000003"/>
      <point x="301.274" y="406.84000000000003" type="curve" smooth="yes"/>
      <point x="317.396" y="406.84000000000003"/>
      <point x="322.962" y="387.46"/>
      <point x="322.962" y="347.72" type="curve" smooth="yes"/>
      <point x="322.962" y="-26.939999999999998" type="line" smooth="yes"/>
      <point x="322.962" y="-116.47999999999999"/>
      <point x="308.394" y="-145.62"/>
      <point x="274.844" y="-145.62" type="curve" smooth="yes"/>
      <point x="249.344" y="-145.62"/>
      <point x="229.574" y="-135.46"/>
      <point x="213.37" y="-127.74000000000001" type="curve"/>
      <point x="213.37" y="-220.84" type="line"/>
      <point x="225.044" y="-227.7"/>
      <point x="268.89" y="-236.0"/>
      <point x="323.55" y="-236.0" type="curve" smooth="yes"/>
      <point x="488.32" y="-236.0"/>
      <point x="553.572" y="-172.5"/>
      <point x="553.572" y="0.5799999999999983" type="curve" smooth="yes"/>
    </contour>
  </outline>
</glyph>
<glyph name="OE" format="2">
  <advance width="856.446"/>
  <unicode hex="0152"/>
  <outline>
    <contour>
      <point x="397.78" y="87.96000000000001" type="line"/>
      <point x="373.692" y="87.96000000000001" type="line" smooth="yes"/>
      <point x="319.008" y="87.96000000000001"/>
      <point x="274.738" y="182.92000000000002"/>
      <point x="274.738" y="353.0" type="curve" smooth="yes"/>
      <point x="274.738" y="523.08"/>
      <point x="319.008" y="622.04"/>
      <point x="373.692" y="622.04" type="curve" smooth="yes"/>
      <point x="397.78" y="622.04" type="line"/>
    </contour>
    <contour>
      <point x="843.384" y="0.0" type="line"/>
      <point x="843.384" y="232.48000000000002" type="line"/>
      <point x="760.552" y="232.48000000000002" type="line"/>
      <point x="751.126" y="130.38" type="line" smooth="yes"/>
      <point x="747.3767651045321" y="94.37891212029129"/>
      <point x="724.2139999999999" y="87.38"/>
      <point x="662.622" y="87.38" type="curve" smooth="yes"/>
      <point x="643.0640000000001" y="87.38" type="line"/>
      <point x="643.0640000000001" y="622.62" type="line"/>
      <point x="669.318" y="622.62" type="line" smooth="yes"/>
      <point x="705.35" y="622.62"/>
      <point x="735.346" y="615.62"/>
      <point x="736.5699999999999" y="579.62" type="curve" smooth="yes"/>
      <point x="740.488" y="502.52" type="line"/>
      <point x="821.12" y="502.52" type="line"/>
      <point x="821.12" y="710.0" type="line"/>
      <point x="361.548" y="710.0" type="line"/>
      <point x="162.428" y="710.0"/>
      <point x="20.064" y="577.6"/>
      <point x="20.064" y="353.0" type="curve" smooth="yes"/>
      <point x="20.064" y="127.4"/>
      <point x="162.428" y="0.0"/>
      <point x="361.548" y="0.0" type="curve"/>
    </contour>
    <contour>
      <point x="620.706" y="401.18" type="line"/>
      <point x="620.706" y="325.68" type="line"/>
      <point x="770.7660000000001" y="312.52" type="line"/>
      <point x="770.7660000000001" y="414.34" type="line"/>
    </contour>
  </outline>
</glyph>
<glyph name="oe" format="2">
  <advance width="825.686"/>
  <unicode hex="0153"/>
  <outline>
    <contour>
      <point x="600.854" y="-10.0" type="curve" smooth="yes"/>
      <point x="700.808" y="-10.0"/>
      <point x="764.612" y="44.58"/>
      <point x="798.338" y="124.2" type="curve"/>
      <point x="728.9680000000001" y="172.22" type="line"/>
      <point x="710.74" y="129.07999999999998"/>
      <point x="680.862" y="83.97999999999999"/>
      <point x="631.544" y="83.97999999999999" type="curve" smooth="yes"/>
      <point x="560.338" y="83.97999999999999"/>
      <point x="549.794" y="144.22"/>
      <point x="549.794" y="255.16" type="curve" smooth="yes"/>
      <point x="549.794" y="387.02"/>
      <point x="559.95" y="433.62"/>
      <point x="578.154" y="433.62" type="curve"/>
      <point x="596.912" y="433.62"/>
      <point x="603.77200073776" y="401.5800346004988"/>
      <point x="605.302" y="268.44" type="curve"/>
      <point x="623.636" y="304.2" type="line"/>
      <point x="424.34000000000003" y="304.2" type="line"/>
      <point x="425.34000000000003" y="221.54" type="line"/>
      <point x="811.812" y="221.54" type="line"/>
      <point x="811.376000025546" y="423.1400034479256"/>
      <point x="727.6500000000001" y="523.3"/>
      <point x="584.862" y="523.3" type="curve" smooth="yes"/>
      <point x="454.406" y="523.3"/>
      <point x="376.928" y="398.14"/>
      <point x="376.928" y="255.44" type="curve" smooth="yes"/>
      <point x="376.928" y="109.74000000000001"/>
      <point x="449.358" y="-10.0"/>
    </contour>
    <contour>
      <point x="268.996" y="-10.0" type="curve" smooth="yes"/>
      <point x="421.692" y="-10.0"/>
      <point x="495.134" y="116.46000000000001"/>
      <point x="495.134" y="256.58" type="curve" smooth="yes"/>
      <point x="495.134" y="396.42"/>
      <point x="421.692" y="523.16"/>
      <point x="268.996" y="523.16" type="curve" smooth="yes"/>
      <point x="113.484372093006" y="523.16"/>
      <point x="15.391999999999998" y="415.3"/>
      <point x="15.391999999999998" y="256.58" type="curve" smooth="yes"/>
      <point x="15.391999999999998" y="97.86"/>
      <point x="113.44" y="-10.0"/>
    </contour>
    <contour>
      <point x="284.176" y="79.68" type="curve" smooth="yes"/>
      <point x="258.946" y="79.68"/>
      <point x="250.06199999999998" y="135.02"/>
      <point x="250.06199999999998" y="256.58" type="curve" smooth="yes"/>
      <point x="250.06199999999998" y="378.0"/>
      <point x="258.986719512146" y="433.48"/>
      <point x="284.176" y="433.48" type="curve" smooth="yes"/>
      <point x="309.406" y="433.48"/>
      <point x="318.29" y="378.0"/>
      <point x="318.29" y="256.58" type="curve" smooth="yes"/>
      <point x="318.29" y="134.88"/>
      <point x="309.406" y="79.68"/>
    </contour>
  </outline>
</glyph>
<glyph name="ohorn" format="2">
  <advance width="583.226"/>
  <unicode hex="01A1"/>
  <anchor x="256.71000000000004" y="538.0" name="top"/>
  <outline>
    <contour>
      <point x="315.184" y="470.1" type="curve"/>
      <point x="531.566" y="454.08"/>
      <point x="605.808" y="504.78"/>
      <point x="605.808" y="680.0" type="curve"/>
      <point x="458.76" y="680.0" type="line"/>
      <point x="456.924" y="557.16"/>
      <point x="408.948" y="523.16"/>
      <point x="286.506" y="523.16" type="curve"/>
      <point x="289.118" y="509.0"/>
      <point x="307.158" y="474.66"/>
    </contour>
    <contour>
      <point x="283.47" y="-10.0" type="curve" smooth="yes"/>
      <point x="453.794" y="-10.0"/>
      <point x="551.642" y="97.86"/>
      <point x="551.642" y="258.3" type="curve" smooth="yes"/>
      <point x="551.642" y="367.56"/>
      <point x="491.886" y="464.86"/>
      <point x="392.438" y="492.12" type="curve"/>
      <point x="357.476" y="513.44"/>
      <point x="323.174" y="523.16"/>
      <point x="283.47" y="523.16" type="curve" smooth="yes"/>
      <point x="113.24" y="523.16"/>
      <point x="15.391999999999998" y="415.16"/>
      <point x="15.391999999999998" y="256.58" type="curve" smooth="yes"/>
      <point x="15.391999999999998" y="97.86"/>
      <point x="113.24" y="-10.0"/>
    </contour>
    <contour>
      <point x="283.47" y="79.68" type="curve" smooth="yes"/>
      <point x="258.746" y="79.68"/>
      <point x="250.06199999999998" y="135.02"/>
      <point x="250.06199999999998" y="256.58" type="curve" smooth="yes"/>
      <point x="250.06199999999998" y="377.86"/>
      <point x="258.746" y="433.48"/>
      <point x="283.47" y="433.48" type="curve" smooth="yes"/>
      <point x="308.288" y="433.48"/>
      <point x="316.97200000000004" y="377.86"/>
      <point x="316.97200000000004" y="256.58" type="curve" smooth="yes"/>
      <point x="316.97200000000004" y="134.88"/>
      <point x="308.288" y="79.68"/>
    </contour>
  </outline>
</glyph>
<glyph name="verticallinemod" format="2">
  <advance width="417.28"/>
  <unicode hex="02C8"/>
  <outline>
    <contour>
      <point x="149.59" y="529.8" type="line"/>
      <point x="266.96000000000004" y="529.8" type="line"/>
      <point x="266.96000000000004" y="750.0" type="line"/>
      <point x="149.59" y="750.0" type="line"/>
    </contour>
  </outline>
</glyph>
<glyph name="hungarumlaut" format="2">
  <advance width="417.18600000000004"/>
  <unicode hex="02DD"/>
  <anchor x="216.23" y="525.0" name="_top"/>
  <outline>
    <contour>
      <point x="73.22999999999999" y="684.64" type="curve" smooth="yes"/>
      <point x="73.512" y="585.14" type="line"/>
      <point x="73.512" y="559.12" type="line"/>
      <point x="147.554" y="559.12" type="line"/>
      <point x="177.126" y="617.14" type="line" smooth="yes"/>
      <point x="219.572" y="670.24"/>
      <point x="234.63400000000001" y="702.0"/>
      <point x="234.63400000000001" y="733.76" type="curve" smooth="yes"/>
      <point x="234.63400000000001" y="768.66"/>
      <point x="213.18200000000002" y="796.84"/>
      <point x="163.252" y="796.84" type="curve" smooth="yes"/>
      <point x="102.378" y="796.84"/>
      <point x="74.854" y="757.9"/>
    </contour>
    <contour>
      <point x="252.368" y="684.64" type="curve" smooth="yes"/>
      <point x="252.18" y="585.14" type="line"/>
      <point x="252.18" y="559.12" type="line"/>
      <point x="326.692" y="559.12" type="line"/>
      <point x="356.264" y="617.14" type="line" smooth="yes"/>
      <point x="398.804" y="670.24"/>
      <point x="413.208" y="702.0"/>
      <point x="413.208" y="733.76" type="curve" smooth="yes"/>
      <point x="413.208" y="768.66"/>
      <point x="392.32" y="796.84"/>
      <point x="342.484" y="796.84" type="curve" smooth="yes"/>
      <point x="281.046" y="796.84"/>
      <point x="254.086" y="757.9"/>
    </contour>
  </outline>
</glyph>
<glyph name="quoteright" format="2">
  <advance width="252"/>
  <unicode hex="2019"/>
  <outline>
    <contour>
      <point x="115" y="339" type="line"/>
      <point x="193" y="416"/>
      <point x="232" y="512"/>
      <point x="232" y="603" type="curve" smooth="yes"/>
      <point x="232.0" y="681.0"/>
      <point x="191" y="715"/>
      <point x="131" y="715" type="curve" smooth="yes"/>
      <point x="72" y="715"/>
      <point x="37" y="674"/>
      <point x="37" y="625" type="curve" smooth="yes"/>
      <point x="37" y="575"/>
      <point x="75" y="538"/>
      <point x="129" y="538" type="curve" smooth="yes"/>
      <point x="146" y="538"/>
      <point x="157" y="540"/>
      <point x="165" y="549" type="curve"/>
      <point x="177" y="565"/>
      <point x="166" y="577"/>
      <point x="150" y="573" type="curve"/>
      <point x="141" y="510"/>
      <point x="83" y="447"/>
      <point x="10" y="392" type="curve"/>
    </contour>
  </outline>
</glyph>
<glyph name="kip" format="2">
  <advance width="467.88"/>
  <unicode hex="20AD"/>
  <outline>
    <contour>
      <point x="2.3420000000000023" y="419.36" type="line"/>
      <point x="2.3420000000000023" y="329.52" type="line"/>
      <point x="473.23400000000004" y="329.52" type="line"/>
      <point x="473.23400000000004" y="419.36" type="line"/>
    </contour>
    <contour>
      <point x="2.3420000000000023" y="0.0" type="line"/>
      <point x="232.01" y="0.0" type="line"/>
      <point x="232.01" y="77.1" type="line"/>
      <point x="230.492" y="77.1" type="line" smooth="yes"/>
      <point x="227.644" y="77.1"/>
      <point x="228.07999999999998" y="80.1"/>
      <point x="228.07999999999998" y="82.80000000000001" type="curve" smooth="yes"/>
      <point x="228.07999999999998" y="622.9" type="line" smooth="yes"/>
      <point x="228.07999999999998" y="629.9"/>
      <point x="235.87" y="632.9"/>
      <point x="244.47199999999998" y="632.9" type="curve" smooth="yes"/>
      <point x="253.898" y="632.9" type="line"/>
      <point x="253.898" y="710.0" type="line"/>
      <point x="2.3420000000000023" y="710.0" type="line"/>
      <point x="2.3420000000000023" y="632.9" type="line"/>
      <point x="5.390000000000001" y="632.9" type="line" smooth="yes"/>
      <point x="15.427127272729194" y="632.9"/>
      <point x="22.5" y="625.9"/>
      <point x="22.5" y="605.5" type="curve" smooth="yes"/>
      <point x="22.5" y="104.5" type="line" smooth="yes"/>
      <point x="22.5" y="84.1"/>
      <point x="15.427127272729194" y="77.1"/>
      <point x="5.390000000000001" y="77.1" type="curve" smooth="yes"/>
      <point x="2.3420000000000023" y="77.1" type="line"/>
    </contour>
    <contour>
      <point x="470.41" y="77.1" type="line"/>
      <point x="470.222" y="77.1" type="line" smooth="yes"/>
      <point x="463.102" y="77.1"/>
      <point x="457.23" y="82.96"/>
      <point x="455.83000000000004" y="103.22" type="curve" smooth="yes"/>
      <point x="393.356" y="497.88" type="line"/>
      <point x="335.212" y="352.26" type="line"/>
      <point x="420.904" y="596.16" type="line" smooth="yes"/>
      <point x="434.754" y="626.9"/>
      <point x="440.826" y="632.9"/>
      <point x="456.336" y="632.9" type="curve" smooth="yes"/>
      <point x="462.42" y="632.9" type="line"/>
      <point x="462.42" y="710.0" type="line"/>
      <point x="303.416" y="710.0" type="line"/>
      <point x="303.416" y="632.9" type="line"/>
      <point x="313.04200000000003" y="632.9" type="line" smooth="yes"/>
      <point x="324.868" y="632.9"/>
      <point x="336.106" y="631.62"/>
      <point x="334.50600000000003" y="624.62" type="curve"/>
      <point x="233.01" y="363.56" type="line"/>
      <point x="234.54000000000002" y="351.86" type="line"/>
      <point x="249.12" y="82.80000000000001" type="line"/>
      <point x="249.12" y="80.1"/>
      <point x="248.46825" y="77.1"/>
      <point x="244.472" y="77.1" type="curve" smooth="yes"/>
      <point x="242.86" y="77.1" type="line"/>
      <point x="242.86" y="0.0" type="line"/>
      <point x="470.41" y="0.0" type="line"/>
    </contour>
  </outline>
</glyph>
<glyph name="peso" format="2">
  <advance width="467.88"/>
  <unicode hex="20B1"/>
  <outline>
    <contour>
      <point x="7.790000000000001" y="0.0" type="line"/>
      <point x="237.47" y="0.0" type="line"/>
      <point x="237.47" y="77.1" type="line"/>
      <point x="235.14000000000001" y="77.1" type="line" smooth="yes"/>
      <point x="217.01799999999997" y="77.1"/>
      <point x="211.05200000000002" y="79.24000000000001"/>
      <point x="211.05200000000002" y="86.24000000000001" type="curve" smooth="yes"/>
      <point x="211.05200000000002" y="206.0" type="line"/>
      <point x="218.16" y="206.0" type="line" smooth="yes"/>
      <point x="367.09000000000003" y="206.0"/>
      <point x="441.144" y="297.7"/>
      <point x="441.144" y="464.94" type="curve" smooth="yes"/>
      <point x="441.144" y="627.02"/>
      <point x="374.606580645428" y="710.0"/>
      <point x="235.564" y="710.0" type="curve" smooth="yes"/>
      <point x="7.790000000000001" y="710.0" type="line"/>
      <point x="7.790000000000001" y="632.9" type="line"/>
      <point x="15.71" y="632.9" type="line" smooth="yes"/>
      <point x="24.518434782600405" y="632.9"/>
      <point x="30.996000000000002" y="625.9"/>
      <point x="30.996000000000002" y="596.9" type="curve" smooth="yes"/>
      <point x="30.996000000000002" y="113.1" type="line" smooth="yes"/>
      <point x="30.996000000000002" y="84.1"/>
      <point x="24.518434782600405" y="77.1"/>
      <point x="15.71" y="77.1" type="curve" smooth="yes"/>
      <point x="7.790000000000001" y="77.1" type="line"/>
    </contour>
    <contour>
      <point x="222.98399999999998" y="622.04" type="line" smooth="yes"/>
      <point x="243.76600000000002" y="622.04"/>
      <point x="260.076" y="596.74"/>
      <point x="260.076" y="460.5" type="curve" smooth="yes"/>
      <point x="260.076" y="325.12"/>
      <point x="243.766" y="293.68"/>
      <point x="224.43200000000002" y="293.68" type="curve" smooth="yes"/>
      <point x="211.05200000000002" y="293.68" type="line"/>
      <point x="211.05200000000002" y="622.04" type="line"/>
    </contour>
    <contour>
      <point x="7.790000000000001" y="505.0" type="line"/>
      <point x="7.790000000000001" y="423.76" type="line"/>
      <point x="171.372" y="423.76" type="line"/>
      <point x="183.834" y="432.36" type="line"/>
      <point x="336.918" y="432.36" type="line"/>
      <point x="368.75" y="423.76" type="line"/>
      <point x="467.88" y="423.76" type="line"/>
      <point x="467.88" y="505.0" type="line"/>
      <point x="380.164" y="505.0" type="line"/>
      <point x="352.546" y="496.4" type="line"/>
      <point x="162.452" y="496.4" type="line"/>
      <point x="159.086" y="505.0" type="line"/>
    </contour>
  </outline>
</glyph>
<glyph name="guarani" format="2">
  <advance width="467.88"/>
  <unicode hex="20B2"/>
  <outline>
    <contour>
      <point x="327.61" y="362.3" type="line"/>
      <point x="327.61" y="285.2" type="line" smooth="yes"/>
      <point x="326.798" y="285.2" type="line"/>
      <point x="323.435317073194" y="285.2"/>
      <point x="320.726" y="278.2"/>
      <point x="320.726" y="249.2" type="curve"/>
      <point x="448.24" y="252.64" type="line"/>
      <point x="448.24" y="278.2"/>
      <point x="451.86400000000003" y="285.2"/>
      <point x="459.98400000000004" y="285.2" type="curve" smooth="yes"/>
      <point x="463.514" y="285.2" type="line"/>
      <point x="463.514" y="362.3" type="line"/>
    </contour>
    <contour>
      <point x="212.66400000000002" y="790.0" type="line"/>
      <point x="212.66400000000002" y="662.12" type="line"/>
      <point x="230.316" y="647.82" type="line"/>
      <point x="230.316" y="62.04" type="line"/>
      <point x="212.66400000000002" y="39.86" type="line"/>
      <point x="212.66400000000002" y="-120.0" type="line"/>
      <point x="312.642" y="-120.0" type="line"/>
      <point x="312.642" y="39.14" type="line"/>
      <point x="294.99" y="63.76" type="line"/>
      <point x="294.99" y="652.42" type="line"/>
      <point x="312.642" y="669.56" type="line"/>
      <point x="312.642" y="790.0" type="line"/>
    </contour>
    <contour>
      <point x="266.15999999999997" y="-7.199999999999999" type="curve" smooth="yes"/>
      <point x="356.382" y="-7.199999999999999"/>
      <point x="418.044" y="36.22"/>
      <point x="448.24" y="77.92" type="curve"/>
      <point x="448.24" y="295.2" type="line"/>
      <point x="320.726" y="324.7" type="line"/>
      <point x="320.726" y="104.42" type="line"/>
      <point x="311.418" y="91.86"/>
      <point x="294.402" y="78.32"/>
      <point x="277.468" y="78.32" type="curve" smooth="yes"/>
      <point x="216.546174863432" y="78.32"/>
      <point x="195.95400000000004" y="174.42000000000002"/>
      <point x="195.95400000000004" y="355.0" type="curve" smooth="yes"/>
      <point x="195.95400000000004" y="521.12"/>
      <point x="203.89759183675199" y="631.68"/>
      <point x="282.046" y="631.68" type="curve" smooth="yes"/>
      <point x="320.008" y="631.68"/>
      <point x="338.884" y="613.56"/>
      <point x="354.664" y="583.54" type="curve"/>
      <point x="394.956" y="586.0"/>
      <point x="415.008" y="631.76"/>
      <point x="332.176" y="626.02" type="curve"/>
      <point x="332.176" y="514.42" type="line"/>
      <point x="451.77" y="514.42" type="line"/>
      <point x="451.77" y="659.6" type="line"/>
      <point x="439.626" y="680.18"/>
      <point x="383.4" y="717.2"/>
      <point x="268.678" y="717.2" type="curve" smooth="yes"/>
      <point x="117.264" y="717.2"/>
      <point x="6.402000000000005" y="567.32"/>
      <point x="6.402000000000005" y="355.0" type="curve" smooth="yes"/>
      <point x="6.402000000000005" y="136.1"/>
      <point x="111.828" y="-7.199999999999999"/>
    </contour>
  </outline>
</glyph>
<glyph name="uni20B8" format="2">
  <advance width="467.88"/>
  <unicode hex="20B8"/>
  <outline>
    <contour>
      <point x="129.232" y="113.1" type="line" smooth="yes"/>
      <point x="129.232" y="84.1"/>
      <point x="118.194" y="77.1"/>
      <point x="101.47200000000001" y="77.1" type="curve" smooth="yes"/>
      <point x="90.22200000000001" y="77.1" type="line"/>
      <point x="90.22200000000001" y="0.0" type="line"/>
      <point x="377.552" y="0.0" type="line"/>
      <point x="377.552" y="77.1" type="line"/>
      <point x="366.208" y="77.1" type="line" smooth="yes"/>
      <point x="348.286" y="77.1"/>
      <point x="338.448" y="84.1"/>
      <point x="338.448" y="113.1" type="curve" smooth="yes"/>
      <point x="338.448" y="461.7" type="line"/>
      <point x="338.154" y="461.7" type="line" smooth="yes"/>
      <point x="346.744" y="461.7"/>
      <point x="370.468" y="454.7"/>
      <point x="371.892" y="416.12" type="curve" smooth="yes"/>
      <point x="376.446" y="314.68" type="line"/>
      <point x="461.784" y="314.68" type="line"/>
      <point x="461.784" y="549.24" type="line"/>
      <point x="6.096000000000004" y="549.24" type="line"/>
      <point x="6.096000000000004" y="314.68" type="line"/>
      <point x="91.434" y="314.68" type="line"/>
      <point x="95.988" y="416.12" type="line" smooth="yes"/>
      <point x="97.412" y="454.7"/>
      <point x="120.5" y="461.7"/>
      <point x="129.726" y="461.7" type="curve" smooth="yes"/>
      <point x="129.232" y="461.7" type="line"/>
    </contour>
    <contour>
      <point x="6.096000000000004" y="710.0" type="line"/>
      <point x="6.096000000000004" y="622.74" type="line"/>
      <point x="461.784" y="622.74" type="line"/>
      <point x="461.784" y="710.0" type="line"/>
    </contour>
  </outline>
</glyph>
<glyph name="litre" format="2">
  <advance width="480.966"/>
  <unicode hex="2113"/>
  <outline>
    <contour>
      <point x="279.598" y="256.06" type="curve"/>
      <point x="279.598" y="487.9"/>
      <point x="311.312" y="629.48"/>
      <point x="337.848" y="629.48" type="curve" smooth="yes"/>
      <point x="346.45" y="629.48"/>
      <point x="351.228" y="611.38"/>
      <point x="351.228" y="576.18" type="curve" smooth="yes"/>
      <point x="351.228" y="422.8"/>
      <point x="291.27420484644597" y="328.6850609801036"/>
      <point x="2.2480000000000047" y="243.16" type="curve"/>
      <point x="20.640000000000004" y="176.38" type="line"/>
      <point x="294.084" y="260.14"/>
      <point x="465.056" y="395.16"/>
      <point x="465.056" y="572.74" type="curve" smooth="yes"/>
      <point x="465.056" y="647.58"/>
      <point x="418.65600000000006" y="710.0"/>
      <point x="332.576" y="710.0" type="curve" smooth="yes"/>
      <point x="186.062869257764" y="710.0"/>
      <point x="79.078" y="519.8"/>
      <point x="79.078" y="259.5" type="curve"/>
      <point x="79.078" y="69.2"/>
      <point x="166.982272340412" y="-10.0"/>
      <point x="284.36400000000003" y="-10.0" type="curve" smooth="yes"/>
      <point x="377.45799999999997" y="-10.0"/>
      <point x="431.812" y="65.88"/>
      <point x="458.85400000000004" y="171.28" type="curve"/>
      <point x="394.356" y="205.18" type="line"/>
      <point x="375.156320876144" y="125.97934341688077"/>
      <point x="349.18" y="79.12"/>
      <point x="320.95000000000005" y="79.12" type="curve" smooth="yes"/>
      <point x="292.638508474296" y="79.12"/>
      <point x="279.598" y="109.25999999999999"/>
    </contour>
  </outline>
</glyph>
<glyph name="partialdiff" format="2">
  <advance width="502.688"/>
  <unicode hex="2202"/>
  <outline>
    <contour>
      <point x="216.206" y="-10.28" type="curve" smooth="yes"/>
      <point x="385.742" y="-10.28"/>
      <point x="495.81600000000003" y="170.76"/>
      <point x="495.81600000000003" y="418.3" type="curve" smooth="yes"/>
      <point x="495.81600000000003" y="634.04"/>
      <point x="384.448" y="744.56"/>
      <point x="238.518" y="744.56" type="curve" smooth="yes"/>
      <point x="176.114" y="744.56"/>
      <point x="118.394" y="727.26"/>
      <point x="71.9" y="698.26" type="curve"/>
      <point x="100.484" y="619.86" type="line"/>
      <point x="132.774" y="638.86"/>
      <point x="161.934" y="654.44"/>
      <point x="194.554" y="654.44" type="curve" smooth="yes"/>
      <point x="256.134" y="654.44"/>
      <point x="279.316" y="600.14"/>
      <point x="279.316" y="467.5" type="curve" smooth="yes"/>
      <point x="279.316" y="275.58"/>
      <point x="258.264" y="74.68"/>
      <point x="236.58800000000002" y="74.68" type="curve" smooth="yes"/>
      <point x="223.90200000000002" y="74.68"/>
      <point x="222.102" y="110.76"/>
      <point x="222.102" y="194.38" type="curve" smooth="yes"/>
      <point x="222.102" y="330.64"/>
      <point x="237.0" y="433.04"/>
      <point x="279.834" y="433.04" type="curve" smooth="yes"/>
      <point x="294.92" y="433.04"/>
      <point x="315.69" y="407.22"/>
      <point x="331.07" y="374.76" type="curve"/>
      <point x="327.928" y="381.42"/>
      <point x="325.304" y="415.42"/>
      <point x="336.142" y="478.32" type="curve"/>
      <point x="337.43600000000004" y="489.72"/>
      <point x="321.11400000000003" y="518.0"/>
      <point x="256.04" y="518.0" type="curve" smooth="yes"/>
      <point x="122.73599999999999" y="518.0"/>
      <point x="6.872" y="375.32"/>
      <point x="6.872" y="216.78" type="curve" smooth="yes"/>
      <point x="6.872" y="84.72"/>
      <point x="65.604" y="-10.28"/>
    </contour>
  </outline>
</glyph>
<glyph name="Euro.proportional" format="2">
  <advance width="606.926"/>
  <outline>
    <contour>
      <point x="41.328" y="467.62" type="line"/>
      <point x="41.328" y="382.38" type="line"/>
      <point x="427.152" y="382.38" type="line"/>
      <point x="427.152" y="467.62" type="line"/>
    </contour>
    <contour>
      <point x="41.328" y="305.9" type="line"/>
      <point x="41.328" y="220.66" type="line"/>
      <point x="403.264" y="220.66" type="line"/>
      <point x="403.264" y="305.9" type="line"/>
    </contour>
    <contour>
      <point x="314.536" y="355.0" type="curve" smooth="yes"/>
      <point x="314.536" y="520.274000000129"/>
      <point x="332.682" y="627.9"/>
      <point x="394.874" y="627.9" type="curve" smooth="yes"/>
      <point x="433.63599999999997" y="627.9"/>
      <point x="454.394" y="599.46"/>
      <point x="477.624" y="538.56" type="curve"/>
      <point x="482.68399999999997" y="579.46"/>
      <point x="472.234" y="614.14"/>
      <point x="431.13" y="625.46" type="curve"/>
      <point x="431.13" y="513.44" type="line"/>
      <point x="582.52" y="513.44" type="line"/>
      <point x="582.52" y="657.14" type="line"/>
      <point x="563.986" y="676.7"/>
      <point x="488.25" y="720.0"/>
      <point x="382.73" y="720.0" type="curve" smooth="yes"/>
      <point x="201.332" y="720.0"/>
      <point x="83.35" y="583.18"/>
      <point x="83.35" y="355.0" type="curve" smooth="yes"/>
      <point x="83.35" y="128.54"/>
      <point x="203.07475657899198" y="-10.0"/>
      <point x="369.762" y="-10.0" type="curve" smooth="yes"/>
      <point x="507.41916279071" y="-10.0"/>
      <point x="566.008363379504" y="90.30530810578395"/>
      <point x="589.004" y="217.26" type="curve"/>
      <point x="514.7860000000001" y="248.0" type="line"/>
      <point x="498.25000557608" y="156.7861986696324"/>
      <point x="466.008827225132" y="82.96"/>
      <point x="408.21799999999996" y="82.96" type="curve" smooth="yes"/>
      <point x="342.321628571474" y="82.96"/>
      <point x="314.536" y="181.4943999999484"/>
    </contour>
  </outline>
</glyph>
<glyph name="blackcircle" format="2">
  <advance width="494.24"/>
  <outline>
    <contour>
      <point x="247.12" y="80.0" type="curve" smooth="yes"/>
      <point x="352.44" y="80.0"/>
      <point x="435.99" y="177.0"/>
      <point x="435.99" y="304.0" type="curve" smooth="yes"/>
      <point x="435.99" y="431.0"/>
      <point x="352.44" y="528.0"/>
      <point x="247.12" y="528.0" type="curve" smooth="yes"/>
      <point x="141.8" y="528.0"/>
      <point x="58.72" y="431.0"/>
      <point x="58.72" y="304.0" type="curve" smooth="yes"/>
      <point x="58.72" y="177.0"/>
      <point x="141.8" y="80.0"/>
    </contour>
  </outline>
</glyph>
<glyph name="blackleftpointingtriangle" format="2">
  <advance width="672.46"/>
  <outline>
    <contour>
      <point x="622.33" y="-39.0" type="line"/>
      <point x="622.33" y="755.0" type="line"/>
      <point x="50.13" y="358.0" type="line"/>
    </contour>
  </outline>
</glyph>
<glyph name="bracketleft.uc" format="2">
  <advance width="307.534"/>
  <outline>
    <contour>
      <point x="30.078000000000003" y="744.2" type="line"/>
      <point x="30.078000000000003" y="-38.34" type="line"/>
      <point x="207.48600000000002" y="-38.34" type="line"/>
      <point x="207.48600000000002" y="744.2" type="line"/>
    </contour>
    <contour>
      <point x="288.84799999999996" y="744.2" type="line"/>
      <point x="63.498000000000005" y="744.2" type="line"/>
      <point x="63.498000000000005" y="651.2" type="line"/>
      <point x="288.84799999999996" y="651.2" type="line"/>
    </contour>
    <contour>
      <point x="288.84799999999996" y="54.66" type="line"/>
      <point x="63.498000000000005" y="54.66" type="line"/>
      <point x="63.498000000000005" y="-38.34" type="line"/>
      <point x="288.84799999999996" y="-38.34" type="line"/>
    </contour>
  </outline>
</glyph>
<glyph name="cedi.proportional" format="2">
  <advance width="621.73"/>
  <outline>
    <contour>
      <point x="345.65" y="717.2" type="curve"/>
      <point x="156.344" y="717.2"/>
      <point x="22.982" y="572.48"/>
      <point x="22.982" y="355.0" type="curve" smooth="yes"/>
      <point x="22.982" y="138.82"/>
      <point x="152.49599999999998" y="-7.199999999999999"/>
      <point x="338.542" y="-7.199999999999999" type="curve" smooth="yes"/>
      <point x="495.004" y="-7.199999999999999"/>
      <point x="570.058" y="91.68"/>
      <point x="592.546" y="235.88" type="curve"/>
      <point x="518.434" y="269.32" type="line"/>
      <point x="503.04200000000003" y="157.74"/>
      <point x="450.65200000000004" y="83.18"/>
      <point x="374.598" y="83.18" type="curve" smooth="yes"/>
      <point x="275.48" y="83.18"/>
      <point x="247.93200000000002" y="182.28"/>
      <point x="247.93200000000002" y="355.0" type="curve" smooth="yes"/>
      <point x="247.93200000000002" y="519.54"/>
      <point x="264.91200000000003" y="627.52"/>
      <point x="362.03000000000003" y="627.52" type="curve" smooth="yes"/>
      <point x="426.164" y="627.52"/>
      <point x="456.442" y="589.98"/>
      <point x="469.904" y="542.84" type="curve"/>
      <point x="544.758" y="545.32"/>
      <point x="474.34000000000003" y="622.9"/>
      <point x="427.188" y="632.34" type="curve"/>
      <point x="427.188" y="495.16" type="line"/>
      <point x="581.7080000000001" y="495.16" type="line"/>
      <point x="581.7080000000001" y="638.5" type="line"/>
      <point x="568.728" y="656.74"/>
      <point x="497.852" y="717.2"/>
    </contour>
    <contour>
      <point x="304.31" y="790.0" type="line"/>
      <point x="304.31" y="662.12" type="line"/>
      <point x="317.09000000000003" y="644.24" type="line"/>
      <point x="317.09000000000003" y="60.64" type="line"/>
      <point x="304.31" y="39.019999999999996" type="line"/>
      <point x="304.31" y="-120.0" type="line"/>
      <point x="394.544" y="-120.0" type="line"/>
      <point x="394.544" y="38.44" type="line"/>
      <point x="381.20000000000005" y="63.06" type="line"/>
      <point x="381.20000000000005" y="650.38" type="line"/>
      <point x="394.544" y="669.28" type="line"/>
      <point x="394.544" y="790.0" type="line"/>
    </contour>
  </outline>
</glyph>
<glyph name="cent.alt" format="2">
  <advance width="467.88"/>
  <outline>
    <contour>
      <point x="310.818" y="82.4" type="curve" smooth="yes"/>
      <point x="269.384" y="82.4"/>
      <point x="249.308" y="145.34"/>
      <point x="249.308" y="255.74" type="curve" smooth="yes"/>
      <point x="249.308" y="362.1"/>
      <point x="259.95799999999997" y="433.34"/>
      <point x="288.236" y="433.34" type="curve" smooth="yes"/>
      <point x="295.426" y="433.34"/>
      <point x="301.086" y="418.14"/>
      <point x="304.31" y="390.3" type="curve"/>
      <point x="327.916" y="406.28"/>
      <point x="329.352" y="457.34"/>
      <point x="291.966" y="458.78" type="curve"/>
      <point x="291.966" y="325.56" type="line"/>
      <point x="447.416" y="325.56" type="line"/>
      <point x="447.416" y="459.9" type="line"/>
      <point x="430.518" y="478.6"/>
      <point x="379.046" y="523.16"/>
      <point x="267.548" y="523.16" type="curve" smooth="yes"/>
      <point x="117.794" y="523.16"/>
      <point x="13.674000000000003" y="422.92"/>
      <point x="13.674000000000003" y="255.74" type="curve" smooth="yes"/>
      <point x="13.674000000000003" y="87.68"/>
      <point x="121.606" y="-10.0"/>
      <point x="264.512" y="-10.0" type="curve" smooth="yes"/>
      <point x="371.468" y="-10.0"/>
      <point x="422.092" y="51.88"/>
      <point x="458.442" y="137.8" type="curve"/>
      <point x="392.108" y="184.68" type="line"/>
      <point x="374.386" y="140.4"/>
      <point x="349.074" y="82.4"/>
    </contour>
    <contour>
      <point x="314.548" y="489.84" type="line"/>
      <point x="314.548" y="623.0" type="line"/>
      <point x="224.31400000000002" y="623.0" type="line"/>
      <point x="224.31400000000002" y="488.58" type="line"/>
    </contour>
    <contour>
      <point x="224.31400000000002" y="45.4" type="line"/>
      <point x="224.31400000000002" y="-126.0" type="line"/>
      <point x="314.548" y="-126.0" type="line"/>
      <point x="314.548" y="46.66" type="line"/>
    </contour>
  </outline>
</glyph>
<glyph name="circumflex_grave" format="2">
  <advance width="426.434"/>
  <anchor x="204.57999999999998" y="564.0" name="_top"/>
  <outline>
    <contour>
      <point x="482.86" y="804.66" type="curve" smooth="yes"/>
      <point x="503.936" y="708.86" type="line"/>
      <point x="503.936" y="678.54" type="line"/>
      <point x="437.89599999999996" y="678.54" type="line"/>
      <point x="378.964" y="727.7" type="line" smooth="yes"/>
      <point x="326.622" y="758.88"/>
      <point x="303.522" y="792.78"/>
      <point x="303.522" y="834.0" type="curve" smooth="yes"/>
      <point x="303.522" y="873.2"/>
      <point x="334.71799999999996" y="903.1"/>
      <point x="381.61199999999997" y="903.1" type="curve" smooth="yes"/>
      <point x="440.014" y="903.1"/>
      <point x="464.938" y="866.32"/>
    </contour>
    <component base="circumflex" xOffset="-51.888"/>
  </outline>
</glyph>
<glyph name="f_b" format="2">
  <advance width="899.08"/>
  <outline>
    <contour>
      <point x="644.782" y="263.02" type="curve" smooth="yes"/>
      <point x="644.782" y="161.1"/>
      <point x="635.91" y="96.88"/>
      <point x="605.6080000000001" y="96.88" type="curve" smooth="yes"/>
      <point x="573.894" y="96.88"/>
      <point x="567.846" y="144.88"/>
      <point x="554.854" y="208.76" type="curve"/>
      <point x="507.254" y="155.8" type="line"/>
      <point x="536.2139999999999" y="40.7"/>
      <point x="587.2860000000001" y="-10.0"/>
      <point x="685.51" y="-10.0" type="curve" smooth="yes"/>
      <point x="798.432" y="-10.0"/>
      <point x="879.452" y="103.3"/>
      <point x="879.452" y="263.02" type="curve" smooth="yes"/>
      <point x="879.452" y="419.16"/>
      <point x="807.034" y="523.16"/>
      <point x="692.1" y="523.16" type="curve" smooth="yes"/>
      <point x="609.562" y="523.16"/>
      <point x="572.706" y="464.88"/>
      <point x="529.472" y="350.64" type="curve"/>
      <point x="555.29" y="293.24" type="line"/>
      <point x="576.754" y="367.58"/>
      <point x="586.474" y="416.28"/>
      <point x="612.904" y="416.28" type="curve" smooth="yes"/>
      <point x="637.11" y="416.28"/>
      <point x="644.782" y="363.08"/>
    </contour>
    <contour>
      <point x="345.956" y="675.78" type="line"/>
      <point x="345.956" y="-0.41999999999999993" type="line"/>
      <point x="484.202" y="-0.41999999999999993" type="line"/>
      <point x="554.466" y="105.14" type="line"/>
      <point x="577.13" y="110.68" type="line"/>
      <point x="577.13" y="730.7" type="line"/>
      <point x="324.386" y="730.7" type="line"/>
    </contour>
    <contour>
      <point x="-6.378" y="513.16" type="line"/>
      <point x="-6.378" y="432.08" type="line"/>
      <point x="323.88" y="432.08" type="line"/>
      <point x="323.88" y="513.16" type="line"/>
    </contour>
    <contour>
      <point x="277.374" y="574.44" type="line" smooth="yes"/>
      <point x="277.374" y="636.02"/>
      <point x="290.06" y="659.02"/>
      <point x="321.456" y="659.02" type="curve" smooth="yes"/>
      <point x="353.24" y="659.02"/>
      <point x="374.29200000000003" y="632.02"/>
      <point x="387.578" y="572.26" type="curve"/>
      <point x="492.20399999999995" y="694.7" type="line"/>
      <point x="448.534" y="722.4"/>
      <point x="390.32" y="747.7"/>
      <point x="295.026" y="747.7" type="curve" smooth="yes"/>
      <point x="161.546" y="747.7"/>
      <point x="47.400000000000006" y="695.38"/>
      <point x="47.400000000000006" y="542.62" type="curve" smooth="yes"/>
      <point x="47.400000000000006" y="102.5" type="line" smooth="yes"/>
      <point x="47.400000000000006" y="81.24000000000001"/>
      <point x="37.692" y="71.66"/>
      <point x="18.945999999999998" y="71.66" type="curve" smooth="yes"/>
      <point x="8.625999999999998" y="71.66" type="line"/>
      <point x="8.625999999999998" y="0.0" type="line"/>
      <point x="307.782" y="0.0" type="line"/>
      <point x="307.782" y="71.66" type="line"/>
      <point x="303.298" y="71.66" type="line" smooth="yes"/>
      <point x="288.848" y="71.66"/>
      <point x="277.374" y="73.80000000000001"/>
      <point x="277.374" y="79.94" type="curve"/>
    </contour>
  </outline>
</glyph>
<glyph name="f_f_i.alt" format="2">
  <advance width="905.6579999999999"/>
  <outline>
    <contour>
      <point x="-6.378" y="513.16" type="line"/>
      <point x="-6.378" y="432.08" type="line"/>
      <point x="373.28" y="432.08" type="line"/>
      <point x="373.28" y="513.16" type="line"/>
    </contour>
    <contour>
      <point x="292.178" y="513.16" type="line"/>
      <point x="292.178" y="432.08" type="line"/>
      <point x="642.982" y="432.08" type="line"/>
      <point x="642.982" y="513.16" type="line"/>
    </contour>
    <contour>
      <point x="627.496" y="0.0" type="line"/>
      <point x="895.644" y="0.0" type="line"/>
      <point x="895.644" y="71.66" type="line"/>
      <point x="894.644" y="71.66" type="line" smooth="yes"/>
      <point x="884.4300000000001" y="71.66"/>
      <point x="875.686" y="77.80000000000001"/>
      <point x="875.686" y="99.06" type="curve" smooth="yes"/>
      <point x="875.686" y="513.16" type="line"/>
      <point x="624.66" y="513.16" type="line"/>
      <point x="624.66" y="432.08" type="line"/>
      <point x="630.108" y="432.08" type="line" smooth="yes"/>
      <point x="642.088" y="432.08"/>
      <point x="644.512" y="421.24"/>
      <point x="644.512" y="403.42" type="curve" smooth="yes"/>
      <point x="644.512" y="79.94" type="line" smooth="yes"/>
      <point x="644.512" y="73.80000000000001"/>
      <point x="634.992" y="71.66"/>
      <point x="629.908" y="71.66" type="curve" smooth="yes"/>
      <point x="627.496" y="71.66" type="line"/>
    </contour>
    <contour>
      <point x="575.9300000000001" y="79.94" type="curve" smooth="yes"/>
      <point x="575.9300000000001" y="554.52" type="line" smooth="yes"/>
      <point x="575.9300000000001" y="630.48"/>
      <point x="590.24" y="662.46"/>
      <point x="639.452" y="662.46" type="curve" smooth="yes"/>
      <point x="670.848" y="662.46"/>
      <point x="684.804" y="644.9"/>
      <point x="685.016" y="631.66" type="curve"/>
      <point x="709.916" y="635.9"/>
      <point x="708.598" y="687.06"/>
      <point x="669.424" y="688.64" type="curve"/>
      <point x="669.424" y="578.74" type="line"/>
      <point x="849.798" y="578.74" type="line"/>
      <point x="849.798" y="703.54" type="line"/>
      <point x="809.3879999999999" y="723.0"/>
      <point x="729.9680000000001" y="747.7"/>
      <point x="626.672" y="747.7" type="curve" smooth="yes"/>
      <point x="471.94" y="747.7"/>
      <point x="345.956" y="692.16"/>
      <point x="345.956" y="542.48" type="curve" smooth="yes"/>
      <point x="345.956" y="79.94" type="line" smooth="yes"/>
      <point x="345.956" y="73.80000000000001"/>
      <point x="334.612" y="71.66"/>
      <point x="333.576" y="71.66" type="curve" smooth="yes"/>
      <point x="331.47" y="71.66" type="line"/>
      <point x="331.47" y="0.0" type="line"/>
      <point x="596.594" y="0.0" type="line"/>
      <point x="596.594" y="71.66" type="line"/>
      <point x="595.782" y="71.66" type="line" smooth="yes"/>
      <point x="581.896" y="71.66"/>
      <point x="575.9300000000001" y="73.80000000000001"/>
    </contour>
    <contour>
      <point x="277.374" y="79.94" type="curve"/>
      <point x="277.374" y="543.12" type="line" smooth="yes"/>
      <point x="277.374" y="619.08"/>
      <point x="285.282" y="651.06"/>
      <point x="324.57399999999996" y="651.06" type="curve" smooth="yes"/>
      <point x="353.322" y="651.06"/>
      <point x="363.278" y="633.36"/>
      <point x="363.28999999999996" y="602.7" type="curve"/>
      <point x="360.96" y="652.74"/>
      <point x="383.20000000000005" y="675.52"/>
      <point x="345.956" y="674.3" type="curve"/>
      <point x="345.956" y="543.14" type="line"/>
      <point x="453.394" y="575.94" type="line"/>
      <point x="473.446" y="698.66" type="line"/>
      <point x="450.97" y="716.92"/>
      <point x="387.954" y="736.3"/>
      <point x="301.486" y="736.3" type="curve" smooth="yes"/>
      <point x="160.71" y="736.3"/>
      <point x="47.400000000000006" y="680.76"/>
      <point x="47.400000000000006" y="531.08" type="curve" smooth="yes"/>
      <point x="47.400000000000006" y="102.5" type="line" smooth="yes"/>
      <point x="47.400000000000006" y="81.24000000000001"/>
      <point x="37.692" y="71.66"/>
      <point x="18.945999999999998" y="71.66" type="curve" smooth="yes"/>
      <point x="8.625999999999998" y="71.66" type="line"/>
      <point x="8.625999999999998" y="0.0" type="line"/>
      <point x="300.568" y="0.0" type="line"/>
      <point x="300.568" y="71.66" type="line"/>
      <point x="298.038" y="71.66" type="line" smooth="yes"/>
      <point x="283.846" y="71.66"/>
      <point x="277.374" y="73.80000000000001"/>
    </contour>
  </outline>
</glyph>
<glyph name="f_f_k" format="2">
  <advance width="1239.0700000000002"/>
  <outline>
    <contour>
      <point x="1230.68" y="0.0" type="line"/>
      <point x="1230.68" y="71.66" type="line"/>
      <point x="1229.244" y="71.66" type="line"/>
      <point x="1209.298" y="71.66"/>
      <point x="1191.376" y="80.24000000000001"/>
      <point x="1182.256" y="103.64" type="curve" smooth="yes"/>
      <point x="1050.4940000000001" y="366.48" type="line"/>
      <point x="993.774" y="269.3" type="line"/>
      <point x="1119.158" y="401.96" type="line" smooth="yes"/>
      <point x="1136.268" y="423.92"/>
      <point x="1159.0500000000002" y="441.5"/>
      <point x="1191.0700000000002" y="441.5" type="curve"/>
      <point x="1192.6000000000001" y="441.5" type="line"/>
      <point x="1192.6000000000001" y="513.16" type="line"/>
      <point x="966.638" y="513.16" type="line"/>
      <point x="966.638" y="441.5" type="line"/>
      <point x="969.604" y="441.5" type="line" smooth="yes"/>
      <point x="987.726" y="441.5"/>
      <point x="1023.558" y="438.5"/>
      <point x="1023.558" y="423.5" type="curve"/>
      <point x="891.384" y="279.88" type="line"/>
      <point x="891.384" y="249.94" type="line"/>
      <point x="941.832" y="79.94" type="line"/>
      <point x="941.832" y="73.80000000000001"/>
      <point x="932.206" y="71.66"/>
      <point x="926.558" y="71.66" type="curve" smooth="yes"/>
      <point x="924.028" y="71.66" type="line"/>
      <point x="924.028" y="0.0" type="line"/>
    </contour>
    <contour>
      <point x="-6.378" y="513.16" type="line"/>
      <point x="-6.378" y="432.08" type="line"/>
      <point x="349.498" y="432.08" type="line"/>
      <point x="349.498" y="513.16" type="line"/>
    </contour>
    <contour>
      <point x="292.178" y="513.16" type="line"/>
      <point x="292.178" y="432.08" type="line"/>
      <point x="622.436" y="432.08" type="line"/>
      <point x="622.436" y="513.16" type="line"/>
    </contour>
    <contour>
      <point x="624.46" y="0.0" type="line"/>
      <point x="892.926" y="0.0" type="line"/>
      <point x="892.926" y="71.66" type="line"/>
      <point x="890.3960000000001" y="71.66" type="line" smooth="yes"/>
      <point x="885.1120000000001" y="71.66"/>
      <point x="875.686" y="73.80000000000001"/>
      <point x="875.686" y="79.94" type="curve"/>
      <point x="875.686" y="730.7" type="line"/>
      <point x="621.318" y="730.7" type="line"/>
      <point x="644.512" y="682.98" type="line"/>
      <point x="644.512" y="79.94" type="line"/>
      <point x="644.512" y="73.80000000000001"/>
      <point x="634.992" y="71.66"/>
      <point x="628.072" y="71.66" type="curve" smooth="yes"/>
      <point x="624.46" y="71.66" type="line"/>
    </contour>
    <contour>
      <point x="277.374" y="79.94" type="curve"/>
      <point x="277.374" y="575.92" type="line" smooth="yes"/>
      <point x="277.374" y="632.34"/>
      <point x="287.706" y="648.46"/>
      <point x="307.852" y="648.46" type="curve" smooth="yes"/>
      <point x="317.608" y="648.46"/>
      <point x="331.47" y="642.04"/>
      <point x="329.964" y="640.06" type="curve"/>
      <point x="329.964" y="724.56" type="line"/>
      <point x="320.02" y="730.56"/>
      <point x="289.212" y="737.14"/>
      <point x="250.53199999999998" y="737.14" type="curve" smooth="yes"/>
      <point x="139.54" y="737.14"/>
      <point x="47.400000000000006" y="684.82"/>
      <point x="47.400000000000006" y="532.06" type="curve" smooth="yes"/>
      <point x="47.400000000000006" y="102.5" type="line"/>
      <point x="47.400000000000006" y="81.24000000000001"/>
      <point x="37.692" y="71.66"/>
      <point x="18.945999999999998" y="71.66" type="curve" smooth="yes"/>
      <point x="8.625999999999998" y="71.66" type="line"/>
      <point x="8.625999999999998" y="0.0" type="line"/>
      <point x="300.568" y="0.0" type="line"/>
      <point x="300.568" y="71.66" type="line"/>
      <point x="298.038" y="71.66" type="line" smooth="yes"/>
      <point x="283.846" y="71.66"/>
      <point x="277.374" y="73.80000000000001"/>
    </contour>
    <contour>
      <point x="575.9300000000001" y="79.94" type="curve"/>
      <point x="575.9300000000001" y="574.44" type="line" smooth="yes"/>
      <point x="575.9300000000001" y="636.02"/>
      <point x="589.1800000000001" y="659.02"/>
      <point x="620.0120000000001" y="659.02" type="curve" smooth="yes"/>
      <point x="653.514" y="659.02"/>
      <point x="674.472" y="633.42"/>
      <point x="686.134" y="572.26" type="curve"/>
      <point x="790.76" y="694.7" type="line"/>
      <point x="747.0899999999999" y="722.4"/>
      <point x="688.876" y="747.7"/>
      <point x="594.146" y="747.7" type="curve" smooth="yes"/>
      <point x="460.102" y="747.7"/>
      <point x="345.956" y="695.38"/>
      <point x="345.956" y="542.62" type="curve"/>
      <point x="345.956" y="79.94" type="line"/>
      <point x="345.956" y="73.80000000000001"/>
      <point x="340.68399999999997" y="71.66"/>
      <point x="330.54" y="71.66" type="curve" smooth="yes"/>
      <point x="331.47" y="71.66" type="line"/>
      <point x="331.47" y="0.0" type="line"/>
      <point x="593.558" y="0.0" type="line"/>
      <point x="593.558" y="71.66" type="line"/>
      <point x="592.746" y="71.66" type="line" smooth="yes"/>
      <point x="584.932" y="71.66"/>
      <point x="575.9300000000001" y="73.80000000000001"/>
    </contour>
  </outline>
</glyph>
<glyph name="f_f_l.alt" format="2">
  <advance width="904.846"/>
  <outline>
    <contour>
      <point x="-6.378" y="513.16" type="line"/>
      <point x="-6.378" y="432.08" type="line"/>
      <point x="349.498" y="432.08" type="line"/>
      <point x="349.498" y="513.16" type="line"/>
    </contour>
    <contour>
      <point x="292.178" y="513.16" type="line"/>
      <point x="292.178" y="432.08" type="line"/>
      <point x="622.436" y="432.08" type="line"/>
      <point x="622.436" y="513.16" type="line"/>
    </contour>
    <contour>
      <point x="606.338" y="0.0" type="line"/>
      <point x="606.338" y="71.66" type="line"/>
      <point x="601.854" y="71.66" type="line" smooth="yes"/>
      <point x="587.968" y="71.66"/>
      <point x="575.9300000000001" y="73.80000000000001"/>
      <point x="575.9300000000001" y="79.94" type="curve"/>
      <point x="575.9300000000001" y="574.44" type="line" smooth="yes"/>
      <point x="575.9300000000001" y="636.02"/>
      <point x="588.616" y="659.02"/>
      <point x="620.012" y="659.02" type="curve" smooth="yes"/>
      <point x="653.514" y="659.02"/>
      <point x="674.472" y="633.42"/>
      <point x="686.134" y="572.26" type="curve"/>
      <point x="790.76" y="694.7" type="line"/>
      <point x="747.0899999999999" y="722.4"/>
      <point x="688.876" y="747.7"/>
      <point x="594.146" y="747.7" type="curve" smooth="yes"/>
      <point x="460.102" y="747.7"/>
      <point x="345.956" y="695.38"/>
      <point x="345.956" y="542.62" type="curve"/>
      <point x="345.956" y="79.94" type="line"/>
      <point x="345.956" y="73.80000000000001"/>
      <point x="340.68399999999997" y="71.66"/>
      <point x="330.54" y="71.66" type="curve" smooth="yes"/>
      <point x="331.47" y="71.66" type="line"/>
      <point x="331.47" y="0.0" type="line"/>
    </contour>
    <contour>
      <point x="895.644" y="0.0" type="line"/>
      <point x="895.644" y="71.66" type="line"/>
      <point x="894.75" y="71.66" type="line" smooth="yes"/>
      <point x="884.6300000000001" y="71.66"/>
      <point x="875.686" y="77.80000000000001"/>
      <point x="875.686" y="99.06" type="curve"/>
      <point x="875.686" y="730.7" type="line"/>
      <point x="626.578" y="730.7" type="line"/>
      <point x="644.512" y="701.16" type="line"/>
      <point x="644.512" y="79.94" type="line"/>
      <point x="644.512" y="73.80000000000001"/>
      <point x="634.992" y="71.66"/>
      <point x="629.908" y="71.66" type="curve" smooth="yes"/>
      <point x="627.496" y="71.66" type="line"/>
      <point x="627.496" y="0.0" type="line"/>
    </contour>
    <contour>
      <point x="277.374" y="79.94" type="curve" smooth="yes"/>
      <point x="277.374" y="543.12" type="line" smooth="yes"/>
      <point x="277.374" y="619.08"/>
      <point x="285.282" y="651.06"/>
      <point x="324.57399999999996" y="651.06" type="curve" smooth="yes"/>
      <point x="353.322" y="651.06"/>
      <point x="363.278" y="633.36"/>
      <point x="363.28999999999996" y="602.7" type="curve"/>
      <point x="386.448" y="624.36"/>
      <point x="383.20000000000005" y="675.52"/>
      <point x="345.956" y="674.3" type="curve"/>
      <point x="345.956" y="543.14" type="line"/>
      <point x="453.394" y="575.94" type="line"/>
      <point x="473.446" y="698.66" type="line"/>
      <point x="450.97" y="716.92"/>
      <point x="387.954" y="736.3"/>
      <point x="301.486" y="736.3" type="curve" smooth="yes"/>
      <point x="160.71" y="736.3"/>
      <point x="47.400000000000006" y="680.76"/>
      <point x="47.400000000000006" y="531.08" type="curve" smooth="yes"/>
      <point x="47.400000000000006" y="102.5" type="line" smooth="yes"/>
      <point x="47.400000000000006" y="81.24000000000001"/>
      <point x="37.692" y="71.66"/>
      <point x="18.945999999999998" y="71.66" type="curve" smooth="yes"/>
      <point x="8.625999999999998" y="71.66" type="line"/>
      <point x="8.625999999999998" y="0.0" type="line"/>
      <point x="300.568" y="0.0" type="line"/>
      <point x="300.568" y="71.66" type="line"/>
      <point x="298.038" y="71.66" type="line" smooth="yes"/>
      <point x="283.846" y="71.66"/>
      <point x="277.374" y="73.80000000000001"/>
    </contour>
  </outline>
</glyph>
<glyph name="five.den" format="2">
  <advance width="317.702"/>
  <outline>
    <contour>
      <point x="146.33" y="-6.0" type="curve" smooth="yes"/>
      <point x="61.898" y="-6.0"/>
      <point x="22.982000000000003" y="34.86"/>
      <point x="10.250000000000002" y="77.4" type="curve"/>
      <point x="67.464" y="115.3" type="line"/>
      <point x="71.006" y="101.80000000000001"/>
      <point x="88.622" y="60.66"/>
      <point x="119.382" y="60.66" type="curve" smooth="yes"/>
      <point x="141.976" y="60.66"/>
      <point x="156.674" y="82.64"/>
      <point x="156.674" y="123.04" type="curve" smooth="yes"/>
      <point x="156.674" y="162.88"/>
      <point x="148.88400000000001" y="183.72"/>
      <point x="125.572" y="183.72" type="curve" smooth="yes"/>
      <point x="108.486" y="183.72"/>
      <point x="98.354" y="171.3"/>
      <point x="93.282" y="153.18" type="curve"/>
      <point x="35.832" y="153.18" type="line"/>
      <point x="35.832" y="372.82" type="line"/>
      <point x="269.49" y="372.82" type="line"/>
      <point x="261.7" y="279.7" type="line"/>
      <point x="90.928" y="279.7" type="line"/>
      <point x="97.34199999999998" y="360.1" type="line"/>
      <point x="97.34199999999998" y="186.2" type="line"/>
      <point x="95.176" y="177.48"/>
      <point x="89.72800000000001" y="177.78"/>
      <point x="82.02" y="190.5" type="curve"/>
      <point x="104.80199999999999" y="220.64"/>
      <point x="133.362" y="241.64"/>
      <point x="184.422" y="241.64" type="curve" smooth="yes"/>
      <point x="255.80399999999997" y="241.64"/>
      <point x="296.626" y="197.8"/>
      <point x="296.626" y="129.06" type="curve" smooth="yes"/>
      <point x="296.626" y="43.72"/>
      <point x="239.306" y="-6.0"/>
    </contour>
  </outline>
</glyph>
<glyph name="four.lin" format="2">
  <advance width="467.88"/>
  <outline>
    <contour>
      <point x="15.898000000000001" y="176.34" type="line"/>
      <point x="465.15" y="176.34" type="line"/>
      <point x="465.15" y="319.02" type="line"/>
      <point x="100.354" y="319.02" type="line"/>
      <point x="64.804" y="241.32" type="line"/>
      <point x="245.296" y="629.16" type="line"/>
      <point x="255.816" y="710.0" type="line"/>
      <point x="199.53199999999998" y="710.0" type="line"/>
      <point x="15.898000000000001" y="320.86" type="line"/>
    </contour>
    <contour>
      <point x="167.1" y="0.0" type="line"/>
      <point x="458.96000000000004" y="0.0" type="line"/>
      <point x="458.96000000000004" y="77.1" type="line"/>
      <point x="452.1" y="77.1" type="line" smooth="yes"/>
      <point x="435.37800000000004" y="77.1"/>
      <point x="423.14" y="84.1"/>
      <point x="423.14" y="113.1" type="curve" smooth="yes"/>
      <point x="423.14" y="710.0" type="line"/>
      <point x="227.26800000000003" y="710.0" type="line"/>
      <point x="211.45200000000003" y="619.12" type="line"/>
      <point x="211.45200000000003" y="113.1" type="line" smooth="yes"/>
      <point x="211.45200000000003" y="84.1"/>
      <point x="199.214" y="77.1"/>
      <point x="178.832" y="77.1" type="curve" smooth="yes"/>
      <point x="167.1" y="77.1" type="line"/>
    </contour>
  </outline>
</glyph>
<glyph name="heart" format="2">
  <advance width="752.95"/>
  <outline>
    <contour>
      <point x="366.62" y="-10.0" type="line"/>
      <point x="168.63" y="273.0" type="line" smooth="yes"/>
      <point x="97.73" y="375.0"/>
      <point x="58.72" y="437.0"/>
      <point x="58.72" y="535.0" type="curve" smooth="yes"/>
      <point x="58.72" y="632.0"/>
      <point x="113.44" y="710.0"/>
      <point x="210.64" y="710.0" type="curve" smooth="yes"/>
      <point x="337.73" y="710.0"/>
      <point x="407.63" y="567.0"/>
      <point x="407.63" y="363.0" type="curve"/>
      <point x="344.85" y="363.0" type="line"/>
      <point x="344.85" y="567.0"/>
      <point x="415.22" y="710.0"/>
      <point x="542.31" y="710.0" type="curve" smooth="yes"/>
      <point x="639.04" y="710.0"/>
      <point x="694.23" y="632.0"/>
      <point x="694.23" y="535.0" type="curve" smooth="yes"/>
      <point x="694.23" y="437.0"/>
      <point x="655.22" y="375.0"/>
      <point x="583.85" y="273.0" type="curve" smooth="yes"/>
      <point x="385.86" y="-10.0" type="line"/>
    </contour>
  </outline>
</glyph>
<glyph name="horn" format="2">
  <advance width="417.844"/>
  <anchor x="215.7" y="444.0" name="_top"/>
  <outline>
    <contour>
      <point x="98.23599999999999" y="470.1" type="curve"/>
      <point x="301.90999999999997" y="454.08"/>
      <point x="376.716" y="504.78"/>
      <point x="376.71599999999995" y="680.0" type="curve"/>
      <point x="229.6679999999999" y="680.0" type="line"/>
      <point x="227.26799999999997" y="557.16"/>
      <point x="179.856" y="523.16"/>
      <point x="69.55799999999999" y="523.16" type="curve"/>
      <point x="71.606" y="509.0"/>
      <point x="89.64600000000002" y="474.66"/>
    </contour>
  </outline>
</glyph>
<glyph name="lira.altprop" format="2">
  <advance width="533.19"/>
  <outline>
    <contour>
      <point x="28.548000000000002" y="484.26" type="line"/>
      <point x="28.548000000000002" y="405.6" type="line"/>
      <point x="412.09000000000003" y="405.6" type="line"/>
      <point x="412.09000000000003" y="484.26" type="line"/>
    </contour>
    <contour>
      <point x="28.548000000000002" y="336.14" type="line"/>
      <point x="28.548000000000002" y="257.48" type="line"/>
      <point x="412.09000000000003" y="257.48" type="line"/>
      <point x="412.09000000000003" y="336.14" type="line"/>
    </contour>
    <contour>
      <point x="28.548000000000002" y="0.0" type="line"/>
      <point x="517.21" y="0.0" type="line"/>
      <point x="517.21" y="226.66" type="line"/>
      <point x="434.57800000000003" y="226.66" type="line"/>
      <point x="428.188" y="182.07999999999998" type="line" smooth="yes"/>
      <point x="420.892" y="146.07999999999998"/>
      <point x="400.64" y="139.94"/>
      <point x="339.048" y="139.94" type="curve" smooth="yes"/>
      <point x="238.388" y="139.94" type="line"/>
      <point x="145.236" y="99.69999999999999" type="line"/>
      <point x="270.09" y="131.68"/>
      <point x="312.936" y="192.74"/>
      <point x="312.936" y="277.06" type="curve" smooth="yes"/>
      <point x="312.936" y="380.2"/>
      <point x="277.798" y="459.3"/>
      <point x="277.798" y="542.06" type="curve" smooth="yes"/>
      <point x="277.798" y="598.4"/>
      <point x="288.648" y="628.76"/>
      <point x="317.408" y="628.76" type="curve" smooth="yes"/>
      <point x="335.106" y="628.76"/>
      <point x="346.956" y="613.8"/>
      <point x="352.73400000000004" y="591.4" type="curve"/>
      <point x="377.764" y="608.82"/>
      <point x="371.615873987932" y="631.96"/>
      <point x="345.038" y="632.24" type="curve"/>
      <point x="345.038" y="539.14" type="line"/>
      <point x="505.948" y="539.14" type="line"/>
      <point x="505.948" y="658.0" type="line"/>
      <point x="489.556" y="678.98"/>
      <point x="419.562" y="719.72"/>
      <point x="301.592" y="719.72" type="curve" smooth="yes"/>
      <point x="140.988" y="719.72"/>
      <point x="55.908" y="632.84"/>
      <point x="55.908" y="527.6" type="curve" smooth="yes"/>
      <point x="55.908" y="399.68"/>
      <point x="135.516" y="343.84"/>
      <point x="135.516" y="239.7" type="curve" smooth="yes"/>
      <point x="135.516" y="181.9"/>
      <point x="101.766" y="142.82"/>
      <point x="28.548000000000002" y="123.74000000000001" type="curve"/>
    </contour>
  </outline>
</glyph>
<glyph name="rupeeIndian" format="2">
  <advance width="467.88"/>
  <outline>
    <contour>
      <point x="33.432" y="518.42" type="line"/>
      <point x="33.432" y="426.86" type="line"/>
      <point x="451.17" y="426.86" type="line"/>
      <point x="451.17" y="518.42" type="line"/>
    </contour>
    <contour>
      <point x="92.47" y="258.92" type="line"/>
      <point x="124.748" y="258.92" type="line" smooth="yes"/>
      <point x="290.33" y="258.92"/>
      <point x="388.484" y="339.9167479593046"/>
      <point x="388.484" y="453.42" type="curve" smooth="yes"/>
      <point x="388.484" y="564.64"/>
      <point x="339.86126055009197" y="635.7999716209804"/>
      <point x="169.818" y="643.9" type="curve"/>
      <point x="157.168" y="682.12"/>
      <point x="61.38" y="689.98"/>
      <point x="149.766" y="620.16" type="curve"/>
      <point x="451.17" y="620.16" type="line"/>
      <point x="451.17" y="710.0" type="line"/>
      <point x="33.432" y="710.0" type="line"/>
      <point x="33.432" y="616.02" type="line"/>
      <point x="74.45400000000001" y="616.02" type="line" smooth="yes"/>
      <point x="168.21800000000002" y="616.02"/>
      <point x="191.894" y="562.18"/>
      <point x="191.894" y="472.34000000000003" type="curve" smooth="yes"/>
      <point x="191.894" y="384.52"/>
      <point x="169.148" y="329.12"/>
      <point x="66.428" y="329.12" type="curve" smooth="yes"/>
      <point x="33.432" y="329.12" type="line"/>
      <point x="33.432" y="251.0" type="line"/>
      <point x="197.484" y="0.0" type="line"/>
      <point x="447.20399999999995" y="0.0" type="line"/>
      <point x="447.20399999999995" y="75.38" type="line"/>
      <point x="437.084" y="75.38" type="line" smooth="yes"/>
      <point x="414.28999999999996" y="75.38"/>
      <point x="398.90999999999997" y="82.52000000000001"/>
      <point x="383.036" y="103.38" type="curve" smooth="yes"/>
      <point x="245.26" y="302.66" type="line"/>
    </contour>
  </outline>
</glyph>
<glyph name="sterling.altprop" format="2">
  <advance width="527.118"/>
  <outline>
    <contour>
      <point x="21.276" y="408.84000000000003" type="line"/>
      <point x="21.276" y="304.96" type="line"/>
      <point x="435.86" y="304.96" type="line"/>
      <point x="435.86" y="408.84000000000003" type="line"/>
    </contour>
    <contour>
      <point x="21.276" y="0.0" type="line"/>
      <point x="508.10200000000003" y="0.0" type="line"/>
      <point x="508.10200000000003" y="245.1" type="line"/>
      <point x="426.034" y="245.1" type="line"/>
      <point x="418.444" y="188.1" type="line" smooth="yes"/>
      <point x="412.87800000000004" y="152.1"/>
      <point x="391.53200000000004" y="145.1"/>
      <point x="329.94" y="145.1" type="curve" smooth="yes"/>
      <point x="229.28000000000003" y="145.1" type="line"/>
      <point x="138.528" y="99.7" type="line"/>
      <point x="264.018" y="131.68"/>
      <point x="308.7" y="192.74"/>
      <point x="308.7" y="277.06" type="curve" smooth="yes"/>
      <point x="308.7" y="380.2"/>
      <point x="268.69" y="458.88"/>
      <point x="268.69" y="541.64" type="curve" smooth="yes"/>
      <point x="268.69" y="595.4"/>
      <point x="281.222" y="625.32"/>
      <point x="306.95799999999997" y="625.32" type="curve" smooth="yes"/>
      <point x="320.726" y="625.32"/>
      <point x="330.94" y="614.22"/>
      <point x="338.754" y="590.24" type="curve"/>
      <point x="368.02" y="599.06"/>
      <point x="369.844" y="629.08"/>
      <point x="329.858" y="629.36" type="curve"/>
      <point x="329.858" y="514.76" type="line"/>
      <point x="490.76800000000003" y="514.76" type="line"/>
      <point x="490.76800000000003" y="661.14" type="line"/>
      <point x="452.488" y="693.3"/>
      <point x="393.038" y="719.72"/>
      <point x="291.778" y="719.72" type="curve" smooth="yes"/>
      <point x="133.562" y="719.72"/>
      <point x="46.800000000000004" y="632.42"/>
      <point x="46.800000000000004" y="527.18" type="curve" smooth="yes"/>
      <point x="46.800000000000004" y="399.26"/>
      <point x="131.844" y="343.84"/>
      <point x="131.844" y="239.7" type="curve" smooth="yes"/>
      <point x="131.844" y="181.9"/>
      <point x="95.694" y="142.82"/>
      <point x="21.276" y="123.74000000000001" type="curve"/>
    </contour>
  </outline>
</glyph>
<glyph name="two.old" format="2">
  <advance width="467.88"/>
  <outline>
    <contour>
      <point x="195.86" y="468.18" type="curve" smooth="yes"/>
      <point x="172.784" y="468.18"/>
      <point x="160.31" y="446.1"/>
      <point x="151.49599999999998" y="421.04" type="curve"/>
      <point x="146.75400000000002" y="428.36"/>
      <point x="144.224" y="475.44"/>
      <point x="172.372" y="478.3" type="curve"/>
      <point x="172.372" y="354.24" type="line"/>
      <point x="14.592000000000013" y="354.24" type="line"/>
      <point x="14.592000000000013" y="484.8" type="line"/>
      <point x="55.908" y="521.34"/>
      <point x="126.984" y="558.0"/>
      <point x="226.856" y="558.0" type="curve" smooth="yes"/>
      <point x="372.774" y="558.0"/>
      <point x="440.52" y="497.28"/>
      <point x="440.52" y="397.16" type="curve" smooth="yes"/>
      <point x="440.52" y="255.74"/>
      <point x="261.77" y="178.3"/>
      <point x="108.344" y="129.14" type="curve"/>
      <point x="88.21000000000001" y="116.94"/>
      <point x="94.588" y="133.38"/>
      <point x="95.176" y="144.24" type="curve"/>
      <point x="271.902" y="144.24" type="line" smooth="yes"/>
      <point x="334.50600000000003" y="144.24"/>
      <point x="355.664" y="150.24"/>
      <point x="361.56" y="185.82" type="curve" smooth="yes"/>
      <point x="367.31399999999996" y="224.74" type="line"/>
      <point x="449.946" y="224.74" type="line"/>
      <point x="449.946" y="0.0" type="line"/>
      <point x="11.155999999999999" y="0.0" type="line"/>
      <point x="11.155999999999999" y="164.68" type="line"/>
      <point x="137.64600000000002" y="234.18"/>
      <point x="227.738" y="278.32"/>
      <point x="227.738" y="406.18" type="curve" smooth="yes"/>
      <point x="227.738" y="450.08"/>
      <point x="218.14800000000002" y="468.18"/>
    </contour>
  </outline>
</glyph>
